<?xml version="1.0" encoding="utf-8"?>
<!-- Generator: Adobe Illustrator 25.4.1, SVG Export Plug-In . SVG Version: 6.00 Build 0)  -->
<svg version="1.1" id="レイヤー_1" xmlns="http://www.w3.org/2000/svg" xmlns:xlink="http://www.w3.org/1999/xlink" x="0px"
	 y="0px" viewBox="0 0 52 52" style="enable-background:new 0 0 52 52;" xml:space="preserve">
<style type="text/css">
	.st0{fill:#1D9BF0;}
</style>
<path id="Logo_1_" class="st0" d="M46.7,15.4c0,0.5,0,0.9,0,1.4c0,14.1-10.7,30.4-30.4,30.4v0c-5.8,0-11.5-1.7-16.4-4.8
	c0.8,0.1,1.7,0.2,2.5,0.2c4.8,0,9.5-1.6,13.2-4.6c-4.6-0.1-8.6-3.1-10-7.4c1.6,0.3,3.2,0.2,4.8-0.2c-5-1-8.6-5.4-8.6-10.5
	c0,0,0-0.1,0-0.1c1.5,0.8,3.1,1.3,4.8,1.3c-4.7-3.1-6.1-9.4-3.3-14.2C9,13.5,17,17.5,25.6,18c-0.9-3.7,0.3-7.6,3.1-10.2
	c4.3-4,11.1-3.8,15.1,0.5c2.4-0.5,4.7-1.3,6.8-2.6c-0.8,2.5-2.5,4.6-4.7,5.9c2.1-0.2,4.2-0.8,6.1-1.7C50.6,12,48.8,13.9,46.7,15.4z"
	/>
</svg>
