<?xml version="1.0" encoding="utf-8"?>
<!-- Generator: Adobe Illustrator 25.4.1, SVG Export Plug-In . SVG Version: 6.00 Build 0)  -->
<svg version="1.1" id="レイヤー_1" xmlns="http://www.w3.org/2000/svg" xmlns:xlink="http://www.w3.org/1999/xlink" x="0px"
	 y="0px" viewBox="0 0 52 52" style="enable-background:new 0 0 52 52;" xml:space="preserve">
<style type="text/css">
	.st0{fill:#06C755;}
	.st1{fill:#FFFFFF;}
</style>
<g>
	<path class="st0" d="M44.6,52H7.4C3.3,52,0,48.7,0,44.6L0,7.4C0,3.3,3.3,0,7.4,0l37.3,0C48.7,0,52,3.3,52,7.4v37.3
		C52,48.7,48.7,52,44.6,52z"/>
	<g>
		<g>
			<g>
				<path class="st1" d="M43.3,23.6c0-7.8-7.8-14.1-17.3-14.1c-9.6,0-17.3,6.3-17.3,14.1c0,7,6.2,12.8,14.5,13.9
					c0.6,0.1,1.3,0.4,1.5,0.9c0.2,0.4,0.1,1.1,0.1,1.6c0,0-0.2,1.2-0.2,1.5c-0.1,0.4-0.3,1.7,1.5,0.9c1.9-0.8,10-5.9,13.6-10.1h0
					C42.1,29.5,43.3,26.7,43.3,23.6z"/>
			</g>
			<g>
				<path class="st0" d="M37.6,28h-4.9h0c-0.2,0-0.3-0.1-0.3-0.3v0v0v-7.6v0v0c0-0.2,0.1-0.3,0.3-0.3h0h4.9c0.2,0,0.3,0.1,0.3,0.3
					v1.2c0,0.2-0.1,0.3-0.3,0.3h-3.3V23h3.3c0.2,0,0.3,0.1,0.3,0.3v1.2c0,0.2-0.1,0.3-0.3,0.3h-3.3v1.3h3.3c0.2,0,0.3,0.1,0.3,0.3
					v1.2C37.9,27.9,37.7,28,37.6,28z"/>
				<path class="st0" d="M19.5,28c0.2,0,0.3-0.1,0.3-0.3v-1.2c0-0.2-0.1-0.3-0.3-0.3h-3.3v-6c0-0.2-0.1-0.3-0.3-0.3h-1.2
					c-0.2,0-0.3,0.1-0.3,0.3v7.6v0v0c0,0.2,0.1,0.3,0.3,0.3h0H19.5z"/>
				<path class="st0" d="M22.5,19.8h-1.2c-0.2,0-0.3,0.1-0.3,0.3v7.6c0,0.2,0.1,0.3,0.3,0.3h1.2c0.2,0,0.3-0.1,0.3-0.3v-7.6
					C22.8,19.9,22.7,19.8,22.5,19.8z"/>
				<path class="st0" d="M30.8,19.8h-1.2c-0.2,0-0.3,0.1-0.3,0.3v4.5L25.8,20c0,0,0,0,0,0c0,0,0,0,0,0c0,0,0,0,0,0c0,0,0,0,0,0
					c0,0,0,0,0,0c0,0,0,0,0,0c0,0,0,0,0,0c0,0,0,0,0,0c0,0,0,0,0,0c0,0,0,0,0,0c0,0,0,0,0,0c0,0,0,0,0,0c0,0,0,0,0,0c0,0,0,0,0,0
					c0,0,0,0,0,0c0,0,0,0,0,0c0,0,0,0,0,0c0,0,0,0,0,0c0,0,0,0,0,0h-1.2c-0.2,0-0.3,0.1-0.3,0.3v7.6c0,0.2,0.1,0.3,0.3,0.3h1.2
					c0.2,0,0.3-0.1,0.3-0.3v-4.5l3.5,4.7c0,0,0.1,0.1,0.1,0.1c0,0,0,0,0,0c0,0,0,0,0,0c0,0,0,0,0,0c0,0,0,0,0,0c0,0,0,0,0,0
					c0,0,0,0,0,0c0,0,0,0,0,0c0,0,0,0,0,0c0,0,0.1,0,0.1,0h1.2c0.2,0,0.3-0.1,0.3-0.3v-7.6C31.2,19.9,31,19.8,30.8,19.8z"/>
			</g>
		</g>
	</g>
</g>
</svg>
