<?xml version="1.0" encoding="utf-8"?>
<!-- Generator: Adobe Illustrator 25.4.1, SVG Export Plug-In . SVG Version: 6.00 Build 0)  -->
<svg version="1.1" id="レイヤー_1" xmlns="http://www.w3.org/2000/svg" xmlns:xlink="http://www.w3.org/1999/xlink" x="0px"
	 y="0px" viewBox="0 0 29.7 26" style="enable-background:new 0 0 29.7 26;" xml:space="preserve">
<style type="text/css">
	.st0{fill:none;stroke:#414042;stroke-width:2;stroke-linecap:round;stroke-linejoin:round;stroke-miterlimit:10;}
</style>
<g id="グループ_2357" transform="translate(-46 -118.97)">
	<g id="グループ_2352" transform="translate(-6629.721 -9480.551)">
		<g id="speaker-icon" transform="translate(6676.721 9600.551)">
			<path id="path" class="st0" d="M6.8,17.1H5.1c-2.8,0-5-2.2-5.1-4.9c0,0,0-0.1,0-0.1l0,0C0,9.3,2.2,7,4.9,7C5,7,5,7,5.1,7h1.7
				V17.1z"/>
			<path id="path-2" class="st0" d="M16,23.5l-9.2-6.6V7L16,0.3c0.8-0.5,1.8-0.4,2.4,0.4c0.2,0.3,0.3,0.6,0.3,1v20.5
				c0,0.9-0.8,1.6-1.7,1.6C16.6,23.9,16.3,23.8,16,23.5z"/>
			<path id="path-3" class="st0" d="M22,16.6c2.3-2.6,2.3-6.6,0-9.2"/>
			<path id="path-4" class="st0" d="M24.8,19.6c1.8-2.1,2.8-4.8,2.8-7.6c0-2.8-1-5.5-2.8-7.6"/>
		</g>
	</g>
</g>
</svg>
