<?xml version="1.0" encoding="utf-8"?>
<!-- Generator: Adobe Illustrator 25.4.1, SVG Export Plug-In . SVG Version: 6.00 Build 0)  -->
<svg version="1.1" id="レイヤー_1" xmlns="http://www.w3.org/2000/svg" xmlns:xlink="http://www.w3.org/1999/xlink" x="0px"
	 y="0px" viewBox="0 0 20.5 25.2" style="enable-background:new 0 0 20.5 25.2;" xml:space="preserve">
<style type="text/css">
	.st0{fill:#FA4712;}
</style>
<g id="PDFアイコン" transform="translate(-47.706)">
	<path id="パス_2337" class="st0" d="M64,0h-9l-0.5,0.5l-6.3,6.3l-0.5,0.5V21c0,2.3,1.9,4.2,4.2,4.2H64c2.3,0,4.2-1.9,4.2-4.2V4.2
		C68.2,1.9,66.3,0,64,0z M66.7,21c0,1.5-1.2,2.7-2.7,2.7l0,0H51.9c-1.5,0-2.7-1.2-2.7-2.7c0,0,0,0,0,0V7.9h4.1c1.2,0,2.2-1,2.2-2.2
		c0,0,0,0,0,0V1.6H64c1.5,0,2.7,1.2,2.7,2.7V21z"/>
	<path id="パス_2338" class="st0" d="M53.8,12.4h-1.4c-0.2,0-0.4,0.1-0.4,0.4c0,0,0,0,0,0.1v3.6c0,0.3,0.2,0.5,0.5,0.5
		s0.5-0.2,0.5-0.5c0,0,0,0,0,0v-1.1c0,0,0,0,0,0c0,0,0,0,0,0h0.8c0.8,0.1,1.5-0.5,1.6-1.3c0.1-0.8-0.5-1.5-1.3-1.6
		C54,12.4,53.9,12.4,53.8,12.4L53.8,12.4z M53.8,14.5H53c0,0,0,0,0,0c0,0,0,0,0,0v-1.1c0,0,0,0,0,0c0,0,0,0,0,0h0.7
		c0.3,0,0.6,0.2,0.7,0.6C54.5,14.2,54.2,14.5,53.8,14.5C53.8,14.5,53.8,14.5,53.8,14.5L53.8,14.5z"/>
	<path id="パス_2339" class="st0" d="M57.7,12.4h-1.1c-0.2,0-0.4,0.1-0.4,0.4c0,0,0,0,0,0.1v3.7c0,0.2,0.1,0.4,0.4,0.4
		c0,0,0,0,0.1,0h1.1c1,0,1.6-0.3,1.8-1c0.2-0.8,0.2-1.6,0-2.4C59.2,12.8,58.6,12.4,57.7,12.4z M58.5,15.6c-0.1,0.4-0.4,0.5-0.9,0.5
		h-0.5c0,0,0,0,0,0c0,0,0,0,0,0v-2.7c0,0,0,0,0,0c0,0,0,0,0,0h0.5c0.5,0,0.8,0.2,0.9,0.5C58.7,14.4,58.7,15,58.5,15.6L58.5,15.6z"/>
	<path id="パス_2340" class="st0" d="M63.1,12.4h-2.2c-0.2,0-0.4,0.1-0.4,0.4c0,0,0,0,0,0.1v3.6c0,0.3,0.2,0.5,0.5,0.5
		c0.3,0,0.5-0.2,0.5-0.5c0,0,0-0.1,0-0.1v-1.3c0,0,0,0,0,0c0,0,0,0,0,0h1.3c0.2,0,0.4-0.2,0.5-0.4c0-0.2-0.2-0.4-0.4-0.5
		c0,0,0,0-0.1,0h-1.3c0,0,0,0,0,0c0,0,0,0,0,0v-1c0,0,0,0,0,0c0,0,0,0,0,0h1.6c0.2,0,0.4-0.2,0.5-0.4C63.6,12.7,63.4,12.5,63.1,12.4
		C63.2,12.4,63.2,12.4,63.1,12.4L63.1,12.4z"/>
</g>
</svg>
