<svg xmlns="http://www.w3.org/2000/svg" width="22" height="22" viewBox="0 0 22 22">
  <g id="グループ_2530" data-name="グループ 2530" transform="translate(-22 -656)">
    <g id="楕円形_428" data-name="楕円形 428" transform="translate(22 656)" fill="none" stroke="#e4ba9d" stroke-width="2">
      <circle cx="11" cy="11" r="11" stroke="none"/>
      <circle cx="11" cy="11" r="10" fill="none"/>
    </g>
    <g id="グループ_2525" data-name="グループ 2525" transform="translate(-1037.296 1799.992)">
      <path id="パス_2140" data-name="パス 2140" d="M1070.644-1131.152a.508.508,0,0,1-.578.512c-.341,0-.6-.171-.6-.512v-.368a2.413,2.413,0,0,1,.486-1.706,3.984,3.984,0,0,1,1.181-1c.971-.682,1.26-1.024,1.26-1.693,0-.971-.748-1.588-1.995-1.588a2.1,2.1,0,0,0-2.178,1.509.556.556,0,0,1-.551.433,1.44,1.44,0,0,1-.236-.026.559.559,0,0,1-.486-.512.73.73,0,0,1,.039-.223,3.187,3.187,0,0,1,.984-1.5,3.718,3.718,0,0,1,2.493-.761c1.942,0,3.189,1.01,3.189,2.612a2.769,2.769,0,0,1-1.548,2.4c-1.089.761-1.457,1.05-1.457,2.06Zm.3,2.841a.875.875,0,0,1-.906.906.868.868,0,0,1-.906-.906.868.868,0,0,1,.906-.906A.875.875,0,0,1,1070.946-1128.311Z" fill="#e4ba9d" stroke="#e4ba9d" stroke-width="1"/>
    </g>
  </g>
</svg>
