<svg id="icons_dark_setting" data-name="icons/dark/setting" xmlns="http://www.w3.org/2000/svg" width="26" height="26" viewBox="0 0 26 26">
  <g id="長方形_531" data-name="長方形 531" fill="none" stroke="#e4ba9d" stroke-width="1" opacity="0">
    <rect width="26" height="26" stroke="none"/>
    <rect x="0.5" y="0.5" width="25" height="25" fill="none"/>
  </g>
  <g id="settings" transform="translate(3.282 3.282)">
    <circle id="楕円形_52" data-name="楕円形 52" cx="3" cy="3" r="3" transform="translate(6.718 6.718)" fill="none" stroke="#e4ba9d" stroke-linecap="round" stroke-linejoin="round" stroke-width="1.5"/>
    <path id="パス_199" data-name="パス 199" d="M17.47,13.531a1.477,1.477,0,0,0,.3,1.629l.054.054a1.791,1.791,0,1,1-2.533,2.533l-.054-.054a1.489,1.489,0,0,0-2.524,1.056V18.9a1.79,1.79,0,0,1-3.58,0v-.081a1.477,1.477,0,0,0-.967-1.352,1.477,1.477,0,0,0-1.629.3l-.054.054a1.791,1.791,0,1,1-2.533-2.533L4,15.232a1.489,1.489,0,0,0-1.056-2.524H2.79a1.79,1.79,0,1,1,0-3.58h.081a1.477,1.477,0,0,0,1.352-.967,1.477,1.477,0,0,0-.3-1.629l-.054-.054A1.791,1.791,0,1,1,6.406,3.945L6.46,4a1.477,1.477,0,0,0,1.629.3h.072a1.477,1.477,0,0,0,.9-1.352V2.79a1.79,1.79,0,1,1,3.58,0v.081A1.489,1.489,0,0,0,15.16,3.927l.054-.054a1.791,1.791,0,1,1,2.533,2.533l-.054.054a1.477,1.477,0,0,0-.3,1.629v.072a1.477,1.477,0,0,0,1.352.9H18.9a1.79,1.79,0,0,1,0,3.58h-.081A1.477,1.477,0,0,0,17.47,13.531Z" transform="translate(-1 -1)" fill="none" stroke="#e4ba9d" stroke-linecap="round" stroke-linejoin="round" stroke-width="1.5"/>
  </g>
</svg>
