<?xml version="1.0" encoding="utf-8"?>
<!-- Generator: Adobe Illustrator 25.4.1, SVG Export Plug-In . SVG Version: 6.00 Build 0)  -->
<svg version="1.1" id="グループ_86" xmlns="http://www.w3.org/2000/svg" xmlns:xlink="http://www.w3.org/1999/xlink" x="0px"
	 y="0px" viewBox="0 0 87 87" style="enable-background:new 0 0 87 87;" xml:space="preserve">
<style type="text/css">
	.st0{fill:#DDDDDD;}
	.st1{fill:#FFFFFF;}
</style>
<rect x="-45.6" y="-5.6" class="st0" width="163.8" height="113.6"/>
<g id="グループ_85" transform="translate(12.486 11.364)">
	<path id="パス_38" class="st1" d="M31,33.6c-8.1,0-14.7,6.6-14.7,14.8c0,0.4,0.3,0.7,0.7,0.7l0,0h28.1c0.4,0,0.7-0.3,0.7-0.7
		C45.8,40.3,39.1,33.6,31,33.6z M17.6,47.7c0.3-7.4,6.6-13.1,14-12.8c6.9,0.3,12.4,5.8,12.8,12.8H17.6z"/>
	<path id="パス_39" class="st1" d="M30.8,15.2c-4.7,0-8.5,3.8-8.5,8.5s3.8,8.5,8.5,8.5s8.5-3.8,8.5-8.5l0,0
		C39.3,19,35.5,15.2,30.8,15.2z M30.8,30.8c-3.9,0-7.1-3.2-7.1-7.1s3.2-7.1,7.1-7.1s7.1,3.2,7.1,7.1l0,0
		C37.9,27.6,34.7,30.8,30.8,30.8z"/>
</g>
</svg>
