<svg id="グループ_1413" data-name="グループ 1413" xmlns="http://www.w3.org/2000/svg" width="15.53" height="15.53" viewBox="0 0 15.53 15.53">
  <path id="パス_23" data-name="パス 23" d="M3044,797.365a7.765,7.765,0,1,1-7.765-7.764A7.765,7.765,0,0,1,3044,797.365Z" transform="translate(-3028.472 -789.601)" fill="#5bbeea"/>
  <path id="パス_24" data-name="パス 24" d="M3035.524,802.573a.971.971,0,0,1-.74-.343l-2.69-3.168a.971.971,0,0,1,1.48-1.257l1.929,2.272,4.031-5.028a.971.971,0,0,1,1.515,1.214l-4.768,5.946a.971.971,0,0,1-.743.363Z" transform="translate(-3029.056 -790.476)" fill="#fff"/>
</svg>
