<svg xmlns="http://www.w3.org/2000/svg" width="10.62" height="12.267" viewBox="0 0 10.62 12.267">
  <g id="グループ_41" data-name="グループ 41" transform="translate(-3537.534 -310.93)">
    <g id="グループ_39" data-name="グループ 39">
      <g id="グループ_38" data-name="グループ 38">
        <path id="パス_6" data-name="パス 6" d="M3548.014,312.933l-5.084-1.986a.248.248,0,0,0-.178,0l-5.084,1.986a.2.2,0,0,0-.134.188l.232,5.874a3.887,3.887,0,0,0,2.527,3.2l2.459.989a.235.235,0,0,0,.184,0l2.459-.989a3.885,3.885,0,0,0,2.527-3.205l.232-5.864A.2.2,0,0,0,3548.014,312.933Z" fill="#5bbeea"/>
      </g>
    </g>
    <g id="グループ_40" data-name="グループ 40">
      <path id="パス_7" data-name="パス 7" d="M3542.235,319.377a.568.568,0,0,1-.434-.2l-1.578-1.858a.569.569,0,1,1,.868-.737l1.131,1.332,2.365-2.949a.57.57,0,0,1,.889.712l-2.8,3.488a.565.565,0,0,1-.436.213Z" fill="#fff"/>
    </g>
  </g>
</svg>
