<?xml version="1.0" encoding="utf-8"?>
<!-- Generator: Adobe Illustrator 25.4.1, SVG Export Plug-In . SVG Version: 6.00 Build 0)  -->
<svg version="1.1" id="レイヤー_1" xmlns="http://www.w3.org/2000/svg" xmlns:xlink="http://www.w3.org/1999/xlink" x="0px"
	 y="0px" viewBox="0 0 16 8" style="enable-background:new 0 0 16 8;" xml:space="preserve">
<style type="text/css">
	.st0{fill:#FFC502;}
</style>
<g id="グループ_697" transform="translate(0.5 -1.534)">
	<path id="パス_883" class="st0" d="M9.5,9.5h-4c-0.1,0-0.2,0-0.3-0.1C3.7,8.1,3.6,5.9,4.9,4.4C6.2,3,8.4,2.9,9.8,4.1
		s1.6,3.5,0.3,4.9C10,9.2,9.9,9.3,9.8,9.4C9.7,9.5,9.6,9.5,9.5,9.5z M5.7,8.5h3.6c1-1,1-2.6,0-3.5c-1-1-2.6-1-3.5,0
		C4.8,6,4.8,7.5,5.7,8.5L5.7,8.5z"/>
	<path id="パス_884" class="st0" d="M2,1.5c0.1,0,0.3,0.1,0.4,0.1L4,3.3C4.2,3.5,4.2,3.8,4,4C3.8,4.2,3.5,4.2,3.3,4L1.7,2.4
		c-0.2-0.2-0.2-0.5,0-0.7C1.8,1.6,1.9,1.5,2,1.5L2,1.5z M12.6,1.5c0.3,0,0.5,0.2,0.5,0.5c0,0.1-0.1,0.3-0.1,0.4L11.4,4
		c-0.2,0.2-0.5,0.2-0.7,0c-0.2-0.2-0.2-0.5,0-0.7c0,0,0,0,0,0l1.6-1.6C12.4,1.6,12.5,1.5,12.6,1.5z M0,6.3h2.3
		c0.3,0,0.5,0.2,0.5,0.5S2.5,7.3,2.3,7.3H0c-0.3,0-0.5-0.2-0.5-0.5S-0.3,6.3,0,6.3z M12.8,6.3H15c0.3,0,0.5,0.2,0.5,0.5
		S15.3,7.3,15,7.3h-2.3c-0.3,0-0.5-0.2-0.5-0.5S12.5,6.3,12.8,6.3z M0,8.5h15c0.3,0,0.5,0.2,0.5,0.5S15.3,9.5,15,9.5H0
		c-0.3,0-0.5-0.2-0.5-0.5S-0.3,8.5,0,8.5z"/>
</g>
</svg>
