<?xml version="1.0" encoding="utf-8"?>
<!-- Generator: Adobe Illustrator 25.4.1, SVG Export Plug-In . SVG Version: 6.00 Build 0)  -->
<svg version="1.1" id="レイヤー_1" xmlns="http://www.w3.org/2000/svg" xmlns:xlink="http://www.w3.org/1999/xlink" x="0px"
	 y="0px" viewBox="0 0 11.5 11.5" style="enable-background:new 0 0 11.5 11.5;" xml:space="preserve">
<style type="text/css">
	.st0{fill:#24B4EA;}
</style>
<path id="パス_881" class="st0" d="M4.2,0c0.1,0,0.3,0.1,0.4,0.1c0.1,0.1,0.2,0.3,0.1,0.5c-0.2,0.5-0.3,1-0.3,1.6
	c0,2.7,2.2,4.9,4.9,4.9c0.5,0,1.1-0.1,1.6-0.3c0.2-0.1,0.4,0,0.5,0.1c0.1,0.1,0.2,0.3,0.1,0.5c-0.8,2.4-3.1,4-5.6,4
	C2.6,11.5,0,8.9,0,5.6C0,3.1,1.6,0.8,4,0C4.1,0,4.1,0,4.2,0z M9.3,8.1C6,8.1,3.4,5.5,3.4,2.2c0-0.3,0-0.6,0.1-0.9
	C1.9,2.3,1,3.9,1,5.6c0,2.7,2.2,4.9,4.9,4.9c1.7,0,3.4-0.9,4.2-2.4C9.9,8.1,9.6,8.1,9.3,8.1L9.3,8.1z"/>
</svg>
