<?xml version="1.0" encoding="utf-8"?>
<!-- Generator: Adobe Illustrator 25.4.1, SVG Export Plug-In . SVG Version: 6.00 Build 0)  -->
<svg version="1.1" id="レイヤー_1" xmlns="http://www.w3.org/2000/svg" xmlns:xlink="http://www.w3.org/1999/xlink" x="0px"
	 y="0px" viewBox="0 0 13.9 10.1" style="enable-background:new 0 0 13.9 10.1;" xml:space="preserve">
<style type="text/css">
	.st0{fill:#FF6595;}
</style>
<g id="グループ_696" transform="translate(0.5 -0.741)">
	<path id="楕円形_346" class="st0" d="M6.6,2.8c1.8,0,3.2,1.4,3.2,3.2S8.4,9.2,6.6,9.2S3.5,7.8,3.5,6C3.5,4.3,4.9,2.8,6.6,2.8z
		 M6.6,8.2c1.2,0,2.2-1,2.2-2.2s-1-2.2-2.2-2.2S4.5,4.8,4.5,6C4.5,7.2,5.4,8.2,6.6,8.2z"/>
	<path id="パス_882" class="st0" d="M1.9,0.7c0.1,0,0.3,0.1,0.4,0.1l1.4,1.4c0.2,0.2,0.2,0.5,0,0.7C3.4,3.1,3.1,3.1,2.9,3L1.5,1.6
		c-0.2-0.2-0.2-0.5,0-0.7C1.6,0.8,1.8,0.7,1.9,0.7L1.9,0.7z M11,0.7c0.3,0,0.5,0.2,0.5,0.5c0,0.1-0.1,0.3-0.1,0.4L10,3
		C9.8,3.2,9.5,3.2,9.3,3c-0.2-0.2-0.2-0.5,0-0.7c0,0,0,0,0,0l1.4-1.4C10.7,0.8,10.8,0.7,11,0.7L11,0.7z M0,5.3h1.9
		c0.3,0,0.5,0.2,0.5,0.5S2.2,6.3,1.9,6.3H0c-0.3,0-0.5-0.2-0.5-0.5S-0.3,5.3,0,5.3z M10.9,5.3h1.9c0.3,0,0.5,0.2,0.5,0.5
		s-0.2,0.5-0.5,0.5h-1.9c-0.3,0-0.5-0.2-0.5-0.5S10.7,5.3,10.9,5.3z M9.6,8.5c0.1,0,0.3,0.1,0.4,0.1l1.4,1.4c0.2,0.2,0.2,0.5,0,0.7
		c-0.2,0.2-0.5,0.2-0.7,0L9.3,9.3c-0.2-0.2-0.2-0.5,0-0.7C9.4,8.5,9.5,8.5,9.6,8.5L9.6,8.5z M3.2,8.5c0.3,0,0.5,0.2,0.5,0.5
		c0,0.1-0.1,0.3-0.1,0.4l-1.4,1.4c-0.2,0.2-0.5,0.2-0.7,0s-0.2-0.5,0-0.7c0,0,0,0,0,0l1.4-1.4C3,8.5,3.1,8.5,3.2,8.5z"/>
</g>
</svg>
