<?xml version="1.0" encoding="utf-8"?>
<!-- Generator: Adobe Illustrator 25.4.1, SVG Export Plug-In . SVG Version: 6.00 Build 0)  -->
<svg version="1.1" id="レイヤー_1" xmlns="http://www.w3.org/2000/svg" xmlns:xlink="http://www.w3.org/1999/xlink" x="0px"
	 y="0px" viewBox="0 0 35.8 35.8" style="enable-background:new 0 0 35.8 35.8;" xml:space="preserve">
<style type="text/css">
	.st0{fill:#FB7122;}
	.st1{fill:#FFFFFF;}
</style>
<g id="btn_send" transform="translate(-272.081 -512.081)">
	<path id="パス_20" class="st0" d="M290,512.1c9.9,0,17.9,8,17.9,17.9c0,9.9-8,17.9-17.9,17.9s-17.9-8-17.9-17.9
		C272.1,520.1,280.1,512.1,290,512.1C290,512.1,290,512.1,290,512.1z"/>
	<path id="icn_send" class="st1" d="M299.1,529.8l-15.6-5.7c-0.1-0.1-0.2,0-0.3,0c-0.1,0.1-0.1,0.2-0.1,0.3v4c0,0.5,0.4,1,0.9,1.1
		l2.7,0.6l-2.7,0.6c-0.5,0.1-0.9,0.5-0.9,1.1v4c0,0.1,0.1,0.2,0.1,0.3c0.1,0,0.1,0.1,0.2,0.1c0,0,0.1,0,0.1,0l15.6-5.7
		c0.2,0,0.3-0.2,0.3-0.3C299.4,530,299.3,529.9,299.1,529.8z"/>
</g>
</svg>
