<?xml version="1.0" encoding="utf-8"?>
<!-- Generator: Adobe Illustrator 25.4.1, SVG Export Plug-In . SVG Version: 6.00 Build 0)  -->
<svg version="1.1" id="レイヤー_1" xmlns="http://www.w3.org/2000/svg" xmlns:xlink="http://www.w3.org/1999/xlink" x="0px"
	 y="0px" viewBox="0 0 52 52" style="enable-background:new 0 0 52 52;" xml:space="preserve">
<style type="text/css">
	.st0{fill:url(#XMLID_00000162346268108124367250000000783565466158844555_);}
	.st1{fill:url(#XMLID_00000176762499044413023870000017358405067735725452_);}
	.st2{fill:url(#XMLID_00000092424609976135067900000012421344460088685190_);}
</style>
<g id="XMLID_332_">
	
		<radialGradient id="XMLID_00000161602370441579375750000007282714748556011680_" cx="-4.6598" cy="54.3799" r="96.0885" gradientUnits="userSpaceOnUse">
		<stop  offset="0" style="stop-color:#F9ED41"/>
		<stop  offset="0.2412" style="stop-color:#FF833D"/>
		<stop  offset="0.401" style="stop-color:#EE5568"/>
		<stop  offset="0.4888" style="stop-color:#E7407B"/>
		<stop  offset="1" style="stop-color:#0028FF"/>
	</radialGradient>
	<path id="XMLID_337_" style="fill:url(#XMLID_00000161602370441579375750000007282714748556011680_);" d="M36.1,52.1H15.9
		C7.2,52.1,0,44.9,0,36.1V15.9C0,7.1,7.2,0,15.9,0h20.2c8.8,0,15.9,7.2,15.9,15.9v20.2C52.1,44.9,44.9,52.1,36.1,52.1z M15.9,3.9
		c-6.6,0-12,5.4-12,12v20.2c0,6.6,5.4,12,12,12h20.2c6.6,0,12-5.4,12-12V15.9c0-6.6-5.4-12-12-12H15.9z"/>
	
		<radialGradient id="XMLID_00000155108024681794593140000004500470706706559155_" cx="-4.6598" cy="54.3797" r="96.0885" gradientUnits="userSpaceOnUse">
		<stop  offset="0" style="stop-color:#F9ED41"/>
		<stop  offset="0.2412" style="stop-color:#FF833D"/>
		<stop  offset="0.401" style="stop-color:#EE5568"/>
		<stop  offset="0.4888" style="stop-color:#E7407B"/>
		<stop  offset="1" style="stop-color:#0028FF"/>
	</radialGradient>
	<path id="XMLID_334_" style="fill:url(#XMLID_00000155108024681794593140000004500470706706559155_);" d="M26,39.2
		c-7.3,0-13.2-5.9-13.2-13.2c0-7.3,5.9-13.2,13.2-13.2c7.3,0,13.2,5.9,13.2,13.2C39.2,33.3,33.3,39.2,26,39.2z M26,16.9
		c-5.1,0-9.2,4.1-9.2,9.2c0,5.1,4.1,9.2,9.2,9.2c5.1,0,9.2-4.1,9.2-9.2C35.2,21,31.1,16.9,26,16.9z"/>
	
		<radialGradient id="XMLID_00000111169050550569054280000000696531520448343949_" cx="-4.6596" cy="54.3797" r="96.0883" gradientUnits="userSpaceOnUse">
		<stop  offset="0" style="stop-color:#F9ED41"/>
		<stop  offset="0.2412" style="stop-color:#FF833D"/>
		<stop  offset="0.401" style="stop-color:#EE5568"/>
		<stop  offset="0.4888" style="stop-color:#E7407B"/>
		<stop  offset="1" style="stop-color:#0028FF"/>
	</radialGradient>
	<path id="XMLID_333_" style="fill:url(#XMLID_00000111169050550569054280000000696531520448343949_);" d="M44.1,11.4
		c0,1.9-1.5,3.4-3.4,3.4c-1.9,0-3.4-1.5-3.4-3.4c0-1.9,1.5-3.4,3.4-3.4C42.6,8,44.1,9.5,44.1,11.4z"/>
</g>
</svg>
