<?xml version="1.0" encoding="utf-8"?>
<!-- Generator: Adobe Illustrator 25.4.1, SVG Export Plug-In . SVG Version: 6.00 Build 0)  -->
<svg version="1.1" id="レイヤー_1" xmlns="http://www.w3.org/2000/svg" xmlns:xlink="http://www.w3.org/1999/xlink" x="0px"
	 y="0px" viewBox="0 0 24.8 21.7" style="enable-background:new 0 0 24.8 21.7;" xml:space="preserve">
<style type="text/css">
	.st0{fill:#FB7122;}
</style>
<g id="グループ_316" transform="translate(-975.608 -2272.982)">
	<g id="グループ_315">
		<path id="パス_76" class="st0" d="M999.6,2273h-23.2c-0.4,0-0.8,0.3-0.8,0.8c0,0,0,0,0,0v3.1c0,0.4,0.3,0.8,0.8,0.8h0.8v10.9
			c0,0.9,0.7,1.5,1.5,1.6h8.5v1.9l-2,1.3c-0.4,0.2-0.5,0.7-0.2,1.1c0.2,0.4,0.7,0.5,1.1,0.2l0,0l1.9-1.3l1.9,1.3
			c0.4,0.2,0.8,0.2,1.1-0.2s0.2-0.8-0.2-1.1c0,0,0,0,0,0l-2-1.3v-1.9h8.5c0.9,0,1.5-0.7,1.5-1.6v-10.9h0.8c0.4,0,0.8-0.3,0.8-0.8
			v-3.1C1000.4,2273.3,1000.1,2273,999.6,2273C999.6,2273,999.6,2273,999.6,2273z M997.3,2288.5h-18.6v-10.9h18.6V2288.5z
			 M998.9,2276.1h-21.7v-1.6h21.7V2276.1z"/>
	</g>
</g>
</svg>
