<svg xmlns="http://www.w3.org/2000/svg" width="24.8" height="21.7" viewBox="0 0 24.8 21.7">
  <g id="グループ_316" data-name="グループ 316" transform="translate(-975.608 -2272.982)">
    <g id="グループ_315" data-name="グループ 315">
      <path id="パス_76" data-name="パス 76" d="M999.633,2272.982h-23.25a.774.774,0,0,0-.775.775v3.1a.776.776,0,0,0,.775.775h.775v10.85a1.553,1.553,0,0,0,1.55,1.55h8.525v1.909l-1.979,1.321a.774.774,0,1,0,.858,1.289l1.9-1.263,1.9,1.263a.775.775,0,1,0,.86-1.289l-1.981-1.321v-1.909h8.525a1.553,1.553,0,0,0,1.55-1.55v-10.85h.775a.776.776,0,0,0,.775-.775v-3.1A.774.774,0,0,0,999.633,2272.982Zm-2.325,15.5h-18.6v-10.85h18.6Zm1.55-12.4h-21.7v-1.55h21.7Z" fill="#bbb8b5"/>
    </g>
  </g>
</svg>
