<svg xmlns="http://www.w3.org/2000/svg" width="48.401" height="48.401" viewBox="0 0 48.401 48.401">
  <g id="グループ_2515" data-name="グループ 2515" transform="translate(-682 -862.554)">
    <g id="icn_add" transform="translate(682 862.554)">
      <path id="パス_20" data-name="パス 20" d="M24.2,0A24.2,24.2,0,1,1,0,24.2,24.2,24.2,0,0,1,24.2,0Z" fill="#fb7122"/>
      <g id="グループ_12" data-name="グループ 12" transform="translate(19.884 19.385)">
        <path id="パス_19" data-name="パス 19" d="M18.686,14.6v3.087H15.6a.607.607,0,0,0-.6.6.644.644,0,0,0,.6.6h3.087v3.037a.607.607,0,0,0,.6.6.644.644,0,0,0,.6-.6V18.885h3.037a.607.607,0,0,0,.6-.6.565.565,0,0,0-.549-.6H19.935V14.6a.607.607,0,0,0-.6-.6A.694.694,0,0,0,18.686,14.6Z" transform="translate(-15 -14)" fill="#fff"/>
      </g>
    </g>
  </g>
</svg>
