<?xml version="1.0" encoding="utf-8"?>
<!-- Generator: Adobe Illustrator 25.4.1, SVG Export Plug-In . SVG Version: 6.00 Build 0)  -->
<svg version="1.1" id="レイヤー_1" xmlns="http://www.w3.org/2000/svg" xmlns:xlink="http://www.w3.org/1999/xlink" x="0px"
	 y="0px" viewBox="0 0 29.7 25.9" style="enable-background:new 0 0 29.7 25.9;" xml:space="preserve">
<style type="text/css">
	.st0{fill:#414043;stroke:#414042;stroke-width:2;stroke-linecap:round;stroke-linejoin:round;stroke-miterlimit:10;}
	.st1{fill:none;stroke:#414042;stroke-width:2;stroke-linecap:round;}
	.st2{fill:none;stroke:#FFFFFF;stroke-width:2;stroke-linecap:round;}
</style>
<g id="グループ_2362" transform="translate(-6298.942 -9369.97)">
	<g id="グループ_2359" transform="translate(6253 9251)">
		<g id="グループ_2352" transform="translate(-6629.721 -9480.551)">
			<g id="speaker-icon" transform="translate(6676.721 9600.551)">
				<path id="path" class="st0" d="M6.7,17H5c-2.8,0-5-2.2-5.1-4.9c0,0,0-0.1,0-0.1l0,0c0-2.8,2.2-5,4.9-5.1c0,0,0.1,0,0.1,0h1.7V17
					z"/>
				<path id="path-2" class="st0" d="M15.9,23.5l-9.2-6.6v-10l9.2-6.6c0.8-0.5,1.8-0.4,2.4,0.4c0.2,0.3,0.3,0.6,0.3,1v20.5
					c0,0.9-0.8,1.6-1.7,1.6C16.6,23.9,16.2,23.7,15.9,23.5z"/>
			</g>
		</g>
	</g>
	<path id="パス_1999" class="st1" d="M6323.6,9393.7l-22.3-22.3"/>
	<path id="パス_2000" class="st2" d="M6322.6,9395.5l-22.3-22.3"/>
</g>
</svg>
