<svg xmlns="http://www.w3.org/2000/svg" width="22.431" height="22.432" viewBox="0 0 22.431 22.432">
  <path id="パス_73" data-name="パス 73" d="M1230.139,2283.466a11.256,11.256,0,1,0-3.83,8.419l.359-.127-.021-.18A11.174,11.174,0,0,0,1230.139,2283.466Zm-20.86,0a9.644,9.644,0,1,1,17,6.219,7.788,7.788,0,0,0-4.53-4.865,5.171,5.171,0,1,0-5.992.085,7.746,7.746,0,0,0-4.286,4.678A9.6,9.6,0,0,1,1209.279,2283.466Zm5.818-2.813a3.608,3.608,0,1,1,3.608,3.608A3.612,3.612,0,0,1,1215.1,2280.653Zm-2.32,10.238a6.189,6.189,0,0,1,12.184.084,9.613,9.613,0,0,1-12.184-.084Z" transform="translate(-1207.708 -2272.25)" fill="#bbb8b5"/>
</svg>
