<?xml version="1.0" encoding="utf-8"?>
<!-- Generator: Adobe Illustrator 25.4.1, SVG Export Plug-In . SVG Version: 6.00 Build 0)  -->
<svg version="1.1" id="レイヤー_1" xmlns="http://www.w3.org/2000/svg" xmlns:xlink="http://www.w3.org/1999/xlink" x="0px"
	 y="0px" viewBox="0 0 22.4 22.4" style="enable-background:new 0 0 22.4 22.4;" xml:space="preserve">
<style type="text/css">
	.st0{fill:#FB7122;}
</style>
<path id="パス_73" class="st0" d="M22.4,11.2c0-6.2-5-11.3-11.2-11.3C5-0.1-0.1,4.9-0.1,11.1c0,6.2,5,11.3,11.2,11.3
	c2.7,0,5.4-1,7.5-2.8l0.4-0.1l0-0.2C21.2,17.2,22.4,14.3,22.4,11.2z M1.6,11.2c0-5.3,4.3-9.7,9.6-9.7c5.3,0,9.7,4.3,9.7,9.6
	c0,2.3-0.8,4.5-2.3,6.3c-0.7-2.2-2.4-4-4.5-4.9c2.3-1.7,2.8-4.9,1.1-7.2s-4.9-2.8-7.2-1.1c-2.3,1.7-2.8,4.9-1.1,7.2
	c0.3,0.5,0.8,0.9,1.2,1.2c-2,0.9-3.6,2.6-4.3,4.7C2.3,15.6,1.6,13.4,1.6,11.2z M7.4,8.4c0-2,1.6-3.6,3.6-3.6s3.6,1.6,3.6,3.6
	c0,2-1.6,3.6-3.6,3.6l0,0C9,12,7.4,10.4,7.4,8.4L7.4,8.4z M5.1,18.6c0.6-3.4,3.9-5.6,7.2-5c2.5,0.5,4.5,2.5,5,5
	C13.7,21.6,8.6,21.6,5.1,18.6z"/>
</svg>
