<svg xmlns="http://www.w3.org/2000/svg" xmlns:xlink="http://www.w3.org/1999/xlink" viewBox="0 0 310 219.94"><defs><style>.cls-1,.cls-16,.cls-19,.cls-45{fill:none;}.cls-2{fill:#b8b8b8;opacity:0.15;}.cls-13,.cls-14,.cls-2,.cls-22,.cls-25,.cls-3,.cls-34,.cls-4,.cls-41,.cls-46{isolation:isolate;}.cls-13,.cls-4{font-size:13px;}.cls-13,.cls-14,.cls-22,.cls-25,.cls-34,.cls-4,.cls-41,.cls-46{fill:#414042;}.cls-4,.cls-46{font-family:NotoSansCJKjp-Bold-90ms-RKSJ-H, Noto Sans CJK JP;}.cls-4{letter-spacing:0.02em;}.cls-5{letter-spacing:-0.4em;}.cls-6{letter-spacing:0.06em;}.cls-7{letter-spacing:0.06em;}.cls-8{letter-spacing:0.03em;}.cls-9{letter-spacing:0.06em;}.cls-10{letter-spacing:0.05em;}.cls-11{letter-spacing:0.06em;}.cls-12{clip-path:url(#clip-path);}.cls-13,.cls-14,.cls-22,.cls-25,.cls-34,.cls-41{font-family:NotoSansCJKjp-Regular-90ms-RKSJ-H, Noto Sans CJK JP;}.cls-14{font-size:10px;}.cls-15{fill:#f1f9ff;}.cls-16{stroke:#fff;}.cls-16,.cls-19{stroke-width:3px;}.cls-17{fill:#5bbeea;}.cls-18{fill:#fff;}.cls-19{stroke:#5abee9;}.cls-20{fill:#5bbeeb;}.cls-21{fill:#bce0fd;}.cls-22,.cls-25,.cls-34,.cls-41{font-size:11px;}.cls-23,.cls-25{letter-spacing:0.03em;}.cls-24{letter-spacing:0.02em;}.cls-26{letter-spacing:0.02em;}.cls-27{letter-spacing:0.01em;}.cls-28{letter-spacing:0.01em;}.cls-29{letter-spacing:-0.07em;}.cls-30{letter-spacing:-0.03em;}.cls-31{letter-spacing:0.03em;}.cls-32{letter-spacing:0.02em;}.cls-33{letter-spacing:-0.04em;}.cls-34,.cls-52{letter-spacing:0.04em;}.cls-35{letter-spacing:-0.03em;}.cls-36{letter-spacing:-0.13em;}.cls-37{letter-spacing:-0.17em;}.cls-38{letter-spacing:-0.08em;}.cls-39{letter-spacing:-0.01em;}.cls-40{letter-spacing:-0.01em;}.cls-41{letter-spacing:-0.04em;}.cls-42{letter-spacing:-0.06em;}.cls-43{letter-spacing:0.02em;}.cls-44{letter-spacing:0.01em;}.cls-45{stroke:#5bbeea;stroke-linecap:round;stroke-width:2px;}.cls-46{font-size:16px;letter-spacing:-0.18em;}.cls-47{letter-spacing:-0.06em;}.cls-48{letter-spacing:0.03em;}.cls-49{letter-spacing:-0.44em;}.cls-50{letter-spacing:-0.01em;}.cls-51{letter-spacing:-0.45em;}.cls-53{letter-spacing:-0.01em;}</style><clipPath id="clip-path"><rect class="cls-1" x="26.75" y="191.05" width="264.25" height="13"/></clipPath></defs><g id="レイヤー_2" data-name="レイヤー 2"><g id="レイヤー_1-2" data-name="レイヤー 1"><g id="グループ_2837" data-name="グループ 2837"><path id="パス_2231" data-name="パス 2231" class="cls-2" d="M11,22.13H303c3.87,0,7,3.93,7,8.78V211.17c0,4.84-3.13,8.77-7,8.77H11c-3.87,0-7-3.93-7-8.77V30.91C4,26.06,7.13,22.13,11,22.13Z"/><g id="_例_2月10日に売上金が発生" data-name=" 例 2月10日に売上金が発生" class="cls-3"><text class="cls-4" transform="translate(-5.93 11.44)">（例<tspan class="cls-5" x="26.42" y="0">）</tspan><tspan class="cls-6" x="34.27" y="0">2月10</tspan><tspan class="cls-7" x="73.36" y="0">日</tspan><tspan class="cls-8" x="87.09" y="0">に</tspan><tspan class="cls-6" x="100.49" y="0">売上</tspan><tspan class="cls-9" x="128.05" y="0">金</tspan><tspan class="cls-10" x="141.87" y="0">が</tspan><tspan class="cls-11" x="155.57" y="0">発生</tspan></text></g><g class="cls-12"><g id="リピートグリッド_84" data-name="リピートグリッド 84"><g id="_1" data-name=" 1" class="cls-3"><text class="cls-13" transform="translate(26.94 201.05)">2</text><text class="cls-14" transform="translate(34.56 201.87)">月</text></g><g id="_1-2" data-name=" 1-2" class="cls-3"><text class="cls-13" transform="translate(67.94 201.05)">3</text><text class="cls-14" transform="translate(75.56 201.87)">月</text></g><g id="_1-3" data-name=" 1-3" class="cls-3"><text class="cls-13" transform="translate(108.94 201.05)">4</text><text class="cls-14" transform="translate(116.56 201.87)">月</text></g><g id="_1-4" data-name=" 1-4" class="cls-3"><text class="cls-13" transform="translate(149.94 201.05)">5</text><text class="cls-14" transform="translate(157.56 201.87)">月</text></g><g id="_1-5" data-name=" 1-5" class="cls-3"><text class="cls-13" transform="translate(190.94 201.05)">6</text><text class="cls-14" transform="translate(198.56 201.87)">月</text></g><g id="_1-6" data-name=" 1-6" class="cls-3"><text class="cls-13" transform="translate(231.94 201.05)">7</text><text class="cls-14" transform="translate(239.56 201.87)">月</text></g><g id="_1-7" data-name=" 1-7" class="cls-3"><text class="cls-13" transform="translate(272.94 201.05)">8</text><text class="cls-14" transform="translate(280.56 201.87)">月</text></g></g></g><g id="Progress_3" data-name="Progress 3"><g id="長方形_1474" data-name="長方形 1474"><path class="cls-15" d="M23,168.36H292a5,5,0,0,1,5,5h0a5,5,0,0,1-5,5H23a5,5,0,0,1-5-5h0A5,5,0,0,1,23,168.36Z"/><path class="cls-16" d="M23,166.86H292a6.5,6.5,0,0,1,6.5,6.5h0a6.5,6.5,0,0,1-6.5,6.5H23a6.5,6.5,0,0,1-6.5-6.5h0A6.5,6.5,0,0,1,23,166.86Z"/></g><path id="長方形_1475" data-name="長方形 1475" class="cls-17" d="M52,168.36H265v10H52a5,5,0,0,1-5-5h0A5,5,0,0,1,52,168.36Z"/><g id="楕円形_328" data-name="楕円形 328"><circle class="cls-18" cx="270" cy="173.36" r="8"/><circle class="cls-19" cx="270" cy="173.36" r="6.5"/></g><g id="パス_2230" data-name="パス 2230"><path class="cls-18" d="M45.21,179.86a6.5,6.5,0,1,1,6.5-6.5A6.51,6.51,0,0,1,45.21,179.86Z"/><path class="cls-20" d="M45.21,168.36a5,5,0,1,0,5,5,5,5,0,0,0-5-5m0-3a8,8,0,1,1-8,8A8,8,0,0,1,45.21,165.36Z"/></g><circle id="楕円形_329" data-name="楕円形 329" class="cls-21" cx="241" cy="173.36" r="2"/><circle id="楕円形_436" data-name="楕円形 436" class="cls-21" cx="282" cy="173.36" r="2"/><circle id="楕円形_431" data-name="楕円形 431" class="cls-21" cx="199" cy="173.36" r="2"/><circle id="楕円形_432" data-name="楕円形 432" class="cls-21" cx="158" cy="173.36" r="2"/><circle id="楕円形_433" data-name="楕円形 433" class="cls-21" cx="115" cy="173.36" r="2"/><circle id="楕円形_434" data-name="楕円形 434" class="cls-21" cx="74" cy="173.36" r="2"/><circle id="楕円形_435" data-name="楕円形 435" class="cls-21" cx="33" cy="173.36" r="2"/></g><g id="_2月10日に_売上が発生" data-name=" 2月10日に 売上が発生" class="cls-3"><text class="cls-22" transform="translate(25.75 125.69)"><tspan class="cls-23">2月10</tspan><tspan class="cls-24" x="30.5" y="0">日</tspan><tspan x="41.69" y="0">に</tspan></text><text class="cls-25" transform="translate(25.75 141.69)">売<tspan class="cls-26" x="11.3" y="0">上</tspan><tspan class="cls-27" x="22.56" y="0">が</tspan><tspan x="33.66" y="0">発生</tspan></text></g><g id="_2月10日から発生月を_含めて_ヶ月間で_あるため期限は7月31日" data-name=" 2月10日から発生月を 含めて ヶ月間で あるため期限は7月31日" class="cls-3"><text class="cls-25" transform="translate(176 109.69)">2月10<tspan class="cls-28" x="30.5" y="0">日</tspan><tspan class="cls-29" x="41.62" y="0">か</tspan><tspan class="cls-30" x="51.9" y="0">ら</tspan><tspan class="cls-31" x="62.58" y="0">発生</tspan><tspan class="cls-32" x="85.17" y="0">月</tspan><tspan class="cls-33" x="96.34" y="0">を</tspan></text><text class="cls-34" transform="translate(176 125.69)">含<tspan class="cls-35" x="11.41" y="0">め</tspan><tspan class="cls-36" x="22.1" y="0">て</tspan><tspan class="cls-37" x="31.65" y="0">６</tspan><tspan class="cls-38" x="40.8" y="0">ヶ</tspan><tspan class="cls-23" x="50.9" y="0">月</tspan><tspan class="cls-39" x="62.19" y="0">間</tspan><tspan class="cls-40" x="73.11" y="0">で</tspan></text><text class="cls-41" transform="translate(175.85 141.69)">あ<tspan class="cls-42" x="10.61" y="0">る</tspan><tspan class="cls-43" x="20.99" y="0">た</tspan><tspan class="cls-44" x="32.19" y="0">め</tspan><tspan class="cls-23" x="43.33" y="0">期限は7月31日</tspan></text></g><path id="パス_2232" data-name="パス 2232" class="cls-45" d="M45.5,151.67v21.69"/><path id="パス_2233" data-name="パス 2233" class="cls-45" d="M270,151.67v21.69"/><g id="グループ_2836" data-name="グループ 2836"><rect id="長方形_2123" data-name="長方形 2123" class="cls-18" x="15" y="35.4" width="284" height="45" rx="5"/><g id="_ヶ月間" data-name=" ヶ月間" class="cls-3"><text class="cls-46" transform="translate(192.88 62.42)">６<tspan class="cls-47" x="13.14" y="0">ヶ</tspan><tspan class="cls-48" x="28.14" y="0">月間</tspan></text></g><g id="売上発生月_2月_を含めて" data-name="売上発生月 2月 を含めて" class="cls-3"><text class="cls-25" transform="translate(44.5 62)">売上発生<tspan class="cls-49" x="45.19" y="0">月</tspan><tspan class="cls-50" x="51.38" y="0">（</tspan><tspan x="62.28" y="0">2</tspan><tspan class="cls-50" x="68.68" y="0">月</tspan><tspan class="cls-51" x="79.58" y="0">）</tspan><tspan class="cls-33" x="85.65" y="0">を</tspan><tspan class="cls-52" x="96.23" y="0">含</tspan><tspan class="cls-35" x="107.63" y="0">め</tspan><tspan class="cls-53" x="118.33" y="0">て</tspan></text></g><path id="多角形_1" data-name="多角形 1" class="cls-18" d="M157,89l-5-9h10Z"/></g></g></g></g></svg>