<svg xmlns="http://www.w3.org/2000/svg" viewBox="0 0 312.61 296.01"><defs><style>.cls-1{fill:#e84a9c;}</style></defs><g id="レイヤー_2" data-name="レイヤー 2"><g id="レイヤー_1-2" data-name="レイヤー 1"><g id="icn_like-2" data-name="icn like-2"><g id="icn_like_active-2" data-name="icn like active-2"><path class="cls-1" d="M154.13,296A23.78,23.78,0,0,1,138,289.65c-34.68-39.36-70.47-79.87-106.25-120.27-41.27-46.13-42.44-106-2.86-145.59a85,85,0,0,1,43.78-22c9.38-2.38,43.66-7.56,83.68,24.6,38.3-29.55,69.79-28.1,85.36-24.53a84.65,84.65,0,0,1,41.81,21.81h0c39.73,38.07,38.62,99.33-2.62,145.67-15.15,17.37-30.31,34.42-45.46,51.47-16,18-32,35.92-47.93,54.29L175,289.2c-5.06,4.7-10.59,7.06-17.34,6.79h-3.57ZM89.06,12.63A57.53,57.53,0,0,0,75.3,14.18,72.71,72.71,0,0,0,37.7,32.85C3.22,67.33,4.6,120.07,41.2,161,77,201.42,112.81,241.94,147,280.85a10.67,10.67,0,0,0,7.54,2.52h3.3a12.14,12.14,0,0,0,8.16-3l12-13.56c15.95-18.35,32-36.34,48-54.34,15.13-17,30.27-34,45.43-51.43,36.59-41.11,38-95,3.36-128.2a72.23,72.23,0,0,0-35.73-18.6c-17.22-4-44.63-2.77-78.79,25.21l-4.1,3.36-4-3.46C126.4,17.2,103.53,12.63,89.06,12.63Z"/></g></g></g></g></svg>