<svg xmlns="http://www.w3.org/2000/svg" xmlns:xlink="http://www.w3.org/1999/xlink" viewBox="0 0 299.96 283.42"><defs><style>.cls-1{fill:none;}.cls-2{clip-path:url(#clip-path);}.cls-3{fill:#ff349e;}</style><clipPath id="clip-path" transform="translate(-0.06 0.01)"><rect class="cls-1" width="300" height="283.44"/></clipPath></defs><g id="レイヤー_2" data-name="レイヤー 2"><g id="レイヤー_1-2" data-name="レイヤー 1"><g id="icn_like" data-name="icn like"><g class="cls-2"><g id="icn_like_active" data-name="icn like active"><path id="パス_101" data-name="パス 101" class="cls-3" d="M272.93,22A78.54,78.54,0,0,0,234.07,1.78c-20.2-4.67-49.8-1.55-84,26.51C117.32.18,86.2-2.89,67.52,1.78A78.84,78.84,0,0,0,27.12,22c-37.35,37.35-35.79,93.43,3.12,136.94,35.79,40.4,71.59,80.92,105.81,119.82a17.69,17.69,0,0,0,12.45,4.67h3.12a17.67,17.67,0,0,0,12.45-4.67l12.45-14c31.12-35.8,62.25-70,93.43-105.82C308.72,115.37,310.28,57.8,272.93,22Z" transform="translate(-0.06 0.01)"/></g></g></g></g></g></svg>