<?xml version="1.0" encoding="utf-8"?>
<!-- Generator: Adobe Illustrator 25.4.1, SVG Export Plug-In . SVG Version: 6.00 Build 0)  -->
<svg version="1.1" id="グループ_3806" xmlns="http://www.w3.org/2000/svg" xmlns:xlink="http://www.w3.org/1999/xlink" x="0px"
	 y="0px" viewBox="0 0 375 109" style="enable-background:new 0 0 375 109;" xml:space="preserve">
<style type="text/css">
	.st0{fill:#85C5D5;}
	.st1{clip-path:url(#SVGID_00000147911174880119448000000007792959174951585668_);}
	.st2{opacity:0.177;fill:#FFC1DD;enable-background:new    ;}
	.st3{opacity:0.159;fill:#FFFFFF;enable-background:new    ;}
	.st4{fill:none;}
	.st5{fill:none;stroke:#000000;stroke-width:1.5;stroke-linecap:round;stroke-linejoin:round;}
	.st6{enable-background:new    ;}
	.st7{fill:#FFFFFF;}
	.st8{fill:#AACEDD;}
</style>
<path id="bg-2" class="st0" d="M0,0h375l0,0v109l0,0H80C35.8,109,0,73.2,0,29V0L0,0z"/>
<g>
	<defs>
		<path id="SVGID_1_" d="M0-89h375l0,0v198l0,0H80C35.8,109,0,73.2,0,29V-89L0-89z"/>
	</defs>
	<clipPath id="SVGID_00000173152062931680875270000006780231099251280319_">
		<use xlink:href="#SVGID_1_"  style="overflow:visible;"/>
	</clipPath>
	<g id="マスクグループ_9" style="clip-path:url(#SVGID_00000173152062931680875270000006780231099251280319_);">
		<path id="path" class="st2" d="M967.5,83.4c-20.9-0.6-21.8-14.9-42.7-15.1S899.1,86.6,883,86.7c-16,0.1-31.7-26.3-56.1-27.4
			S791.5,73,764.4,72.8S719.5,51.2,688.7,50c-30.8-1.2-38.1,16.3-64.7,15.8s-42.6-48.1-88.9-50.4s-53.4,31-100.4,31.3
			s-25.3,14.8-70.4,15.4s-113.5,47-113.5,47h748.7L967.5,83.4z"/>
		<path id="path-2" class="st3" d="M-285.4,83.2c26.6-0.6,27.8-14.9,54.3-15s32.6,18.2,53,18.3s40.4-26.3,71.3-27.3
			s45.1,13.6,79.5,13.5s57.1-21.6,96.3-22.8s48.4,16.3,82.2,15.8s54.2-47.9,113-50.3S332,46.3,391.9,46.6s32.2,14.8,89.5,15.4
			s144.2,46.9,144.2,46.9h-951.7L-285.4,83.2z"/>
	</g>
</g>
<g id="icons_light_back" transform="translate(365 156) rotate(180)">
	<rect id="bg-3" y="89" class="st4" width="24" height="24"/>
	<g id="arrow-left">
		<line id="線_36" class="st5" x1="19" y1="101" x2="5" y2="101"/>
		<path id="パス_12" class="st5" d="M12,108l-7-7l7-7"/>
	</g>
</g>
<g class="st6">
	<path d="M152.2,52.9c2.5-1,4.8-2.5,6.8-4.6c1.8-1.9,3.2-4.2,4.3-6.8l2.6,2.5c-1.8,3.6-4,6.4-6.6,8.5c-2.2,1.8-5,3.3-8.3,4.5
		l-2.1-1.5V32.6h3.4V52.9z"/>
	<path d="M166.7,39l2.7-1c1,2.1,1.8,4.4,2.5,7l-2.8,1C168.4,43.2,167.6,40.9,166.7,39z M169.9,54.9c3.8-1.4,6.5-3.4,8.1-6.2
		c1.4-2.4,2.3-6.2,2.5-11.2l3.3,0.7c-0.3,3-0.8,5.5-1.3,7.3c-0.5,1.8-1.1,3.4-2,4.8c-1,1.7-2.3,3.1-3.8,4.2c-1.3,1-2.9,1.9-5,2.7
		L169.9,54.9z M172.4,37.8l2.8-0.8c0.8,1.8,1.5,4,2.1,6.7l-2.8,1C173.9,41.7,173.2,39.4,172.4,37.8z"/>
	<path d="M200.6,44.9c2.3,2.7,4.6,6,6.9,9.8l-3.1,2c-1.6-3.3-3.4-6.3-5.5-9c-2.6,3.6-6.2,6.6-10.7,8.9l-1.9-2.6
		c4-1.9,7.3-4.6,9.8-8.1c2.1-2.9,3.5-6.1,4.3-9.8h-12.2v-2.8h15.5l0.8,1.1C203.5,38.5,202.3,42,200.6,44.9z"/>
	<path d="M212.4,33.7c2.8,1.4,5.3,3,7.5,4.7l-2.2,3c-2.3-2.1-4.7-3.8-7.4-5.2L212.4,33.7z M226.9,35l3.1,1.6
		c-0.9,5.5-2.8,9.9-5.6,13.2c-2.9,3.3-7,5.6-12.2,7l-1.6-3.1c5.5-1.2,9.6-3.7,12.3-7.4C225,43.5,226.3,39.7,226.9,35z"/>
</g>
<g class="st6">
	<path d="M98.8,66.7c-1.3,5.8-2,10.8-2,14.9c0,2.7,0.3,5.9,0.8,9.4l-3.1,0.3c-0.5-3.4-0.7-6.7-0.7-9.7c0-4.1,0.6-9.1,1.8-15.1
		L98.8,66.7z M110.8,74.1c0,3.3,0.1,6.4,0.3,9.4c1.8,0.9,3.6,2.2,5.3,3.9l-2.1,2.5c-1.1-1.5-2.2-2.6-3.3-3.3v0.1
		c0,1.4-0.5,2.5-1.6,3.3c-1,0.7-2.3,1-3.9,1c-3.7,0-5.6-1.5-5.6-4.4c0-1.3,0.5-2.4,1.6-3.2c1-0.7,2.2-1,3.6-1c1,0,1.9,0.1,2.7,0.2
		c-0.1-2.9-0.2-5.7-0.2-8.5c-1.7,0.1-3.4,0.1-5,0.1c-0.1,0-1.1,0-2.9-0.1v-2.6c1.4,0.1,2.6,0.1,3.7,0.1c1.4,0,2.8,0,4.2-0.1v-5.2
		h3.1c0,1.2,0,2.9,0,5c1.4-0.1,3-0.2,4.7-0.4v2.8C114.5,73.9,112.9,74,110.8,74.1z M108.1,85.5c-0.7-0.3-1.7-0.5-2.9-0.5
		c-0.8,0-1.4,0.2-1.9,0.5c-0.4,0.3-0.7,0.7-0.7,1.3c0,1.2,1,1.8,2.9,1.8c1.7,0,2.6-0.8,2.6-2.5V85.5z"/>
	<path d="M119.9,66.1h3.3c-0.3,11.7-0.5,17.9-0.5,18.6c0,1.3,0.3,2.3,1,2.9c0.6,0.5,1.5,0.8,2.8,0.8c3.9,0,6.4-2.7,7.4-8l3.1,1.6
		c-1.6,6.2-5,9.3-10.3,9.3c-2.6,0-4.5-0.6-5.5-1.7c-1-1.1-1.5-2.7-1.5-5.1c0-0.8,0-3.4,0.1-7.8C119.8,72.5,119.8,68.9,119.9,66.1z
		 M128.7,68.7l2-0.6c0.8,1.4,1.5,3,2.2,5l-2.1,0.7C130.3,71.9,129.6,70.2,128.7,68.7z M132.4,67.7l2-0.6c0.8,1.5,1.5,3.1,2.1,4.8
		l-2,0.7C133.9,70.7,133.2,69.1,132.4,67.7z"/>
	<path d="M146.8,72.6c1.8-1,3.7-1.5,5.8-1.6c0.2-0.8,0.4-2.3,0.6-4.5l3.2,0.4c-0.3,2.1-0.6,3.5-0.7,4.3c2.3,0.4,4,1.6,5.2,3.4
		c1,1.6,1.6,3.7,1.6,6.3c0,3.4-1,6-3,7.7c-1.6,1.3-3.8,2.3-6.8,2.9l-1.4-2.7c5.4-0.7,8-3.3,8-7.9c0-2.1-0.4-3.9-1.3-5.2
		c-0.7-1.1-1.7-1.8-2.8-2c-1.1,5.5-2.5,9.6-4.3,12.3c-1.6,2.5-3.5,3.7-5.8,3.7c-1.3,0-2.4-0.5-3.1-1.6c-0.8-1.1-1.2-2.8-1.2-5
		c0-3.4,1.2-6.3,3.5-8.6c-0.4-1.7-0.8-3.9-1.2-6.7l2.9-0.4C146.2,69.6,146.5,71.3,146.8,72.6z M148.3,84.8c-1.3-2.3-2.4-4.7-3.2-7.3
		c-1.1,1.7-1.6,3.4-1.6,5.3c0,2.7,0.5,4.1,1.6,4.1C146.2,86.9,147.3,86.2,148.3,84.8z M149.8,81.9c0.8-2.2,1.6-5,2.3-8.4
		c-1.8,0.1-3.4,0.6-4.8,1.7C147.9,77.6,148.8,79.8,149.8,81.9z"/>
	<path d="M176.8,71.5c1.2,0,2-0.1,2.4-0.1c1.4,0,2.5,0.4,3.1,1.3c0.7,0.9,1.1,2.4,1.1,4.4c0,5-0.3,8.5-0.9,10.5
		c-0.3,1.2-0.9,2-1.6,2.5c-0.7,0.5-1.6,0.7-2.8,0.7c-1.1,0-2.2-0.1-3.2-0.2l-0.6-3c1.3,0.3,2.2,0.4,2.7,0.4c0.8,0,1.4-0.1,1.7-0.3
		c0.3-0.2,0.5-0.5,0.7-1c0.6-1.7,0.9-4.8,0.9-9.2c0-1.5-0.2-2.5-0.5-3c-0.2-0.4-0.6-0.6-1.2-0.6c-0.7,0-1.6,0-2.5,0.1
		c-1.6,6.4-3.5,12-5.8,16.8l-2.9-1.1c2.3-4.9,4.2-10,5.6-15.5c-1.7,0.2-3.4,0.3-5.3,0.5l-0.1-2.8c2.8-0.2,4.8-0.3,6-0.4
		c0.5-2.1,0.9-4.1,1.1-6l3.1,0.4C177.5,68.4,177.1,70.2,176.8,71.5z M183,69.8l2.7-1.1c2,3.2,3.6,6.9,4.7,11.2l-3.1,1.2
		C186.5,76.7,185.1,72.9,183,69.8z"/>
	<path d="M200.5,73.2c-1.7,0.1-3.2,0.1-4.7,0.1v-2.7c1.7,0,3.4,0,5.1-0.1c0.2-1.6,0.4-3.3,0.5-5l3.2,0.3c-0.3,1.9-0.5,3.4-0.7,4.5
		c2-0.1,4.2-0.3,6.6-0.5l0.1,2.7c-2.2,0.2-4.5,0.4-7.1,0.5c-1.1,6.3-2.7,12.4-4.7,18.1l-3-1.1C198.1,84.1,199.6,78.4,200.5,73.2z
		 M204.6,83.9l2.7,0.2c-0.2,0.6-0.2,1.2-0.2,1.8c0,0.8,0.3,1.4,0.9,1.7s1.6,0.5,3.1,0.5c2,0,3.7-0.1,5.1-0.3l0.2,3
		c-1.5,0.1-3.2,0.2-5,0.2c-2.7,0-4.6-0.4-5.6-1.2c-0.9-0.7-1.4-1.8-1.4-3.3C204.2,85.6,204.3,84.8,204.6,83.9z M206.2,78.5v-2.7
		c2.8-0.3,5.7-0.5,8.6-0.5c0.5,0,0.8,0,1.1,0V78c-0.2,0-0.6,0-1.1,0C211.4,77.9,208.6,78.1,206.2,78.5z"/>
	<path d="M230.9,71.1h8.8c0,7-0.2,12.1-0.6,15.5c-0.2,1.8-0.7,2.9-1.6,3.5c-0.5,0.3-1.1,0.5-2,0.6s-2.2,0.2-3.9,0.2l-1.1-3.3
		c0.9,0.1,1.6,0.1,2.2,0.1c0.9,0,1.5,0,2-0.1c0.3,0,0.6-0.2,0.7-0.5c0.2-0.3,0.3-0.8,0.4-1.5c0.3-2.7,0.5-6.6,0.5-11.7h-5.6
		c-0.3,4.6-1.1,8.2-2.5,10.9c-1.2,2.4-3.2,4.5-5.8,6.4l-2.2-2.2c2.7-1.9,4.6-4.1,5.7-6.7c0.9-2.1,1.4-4.8,1.6-8.3h-6.4v-2.8h6.5v-5
		h3.4C230.9,68.5,230.9,70.2,230.9,71.1z M235.3,64.7l1.9-0.4c0.8,1.2,1.5,2.8,2.2,4.7l-2,0.6C236.9,67.7,236.2,66.1,235.3,64.7z
		 M239.1,64.1l1.9-0.5c0.8,1.4,1.5,2.9,2.1,4.5l-2,0.6C240.6,67.1,239.9,65.5,239.1,64.1z"/>
	<path d="M255.6,76.4c-2.4,1.7-4.9,3.3-7.7,4.9l-1.9-2.6c3.6-1.8,6.8-3.9,9.6-6.2c2.6-2.2,4.7-4.5,6.2-6.8l3.1,1.9
		c-1.9,2.3-3.9,4.4-5.9,6.2v17.6h-3.4V76.4z"/>
	<path d="M271.4,74.8c4.2,1.1,8.1,2.7,11.5,4.6l-1.7,3.2c-2.8-1.9-6.1-3.4-9.8-4.6v13.3H268V66h3.4V74.8z M276.2,65.4l2-0.5
		c0.8,1.4,1.5,3,2.2,5l-2,0.7C277.8,68.6,277.1,66.9,276.2,65.4z M279.9,64.5l1.9-0.6c0.8,1.5,1.6,3.1,2.1,4.8l-2,0.7
		C281.4,67.5,280.7,65.8,279.9,64.5z"/>
</g>
<g id="グループ_1808" transform="translate(-850.196 -795.523)">
	<g id="グループ_1803">
		<g id="グループ_1790">
			<path id="パス_1443" class="st7" d="M946.4,806.5c20.8,0,37.6,10.5,37.6,23.4c0,7.8-6.2,14.8-15.7,19l2.8,4.5l-6.1-3.2
				c-6,2.1-12.2,3.1-18.5,3c-20.8,0-37.6-10.5-37.6-23.4S925.6,806.5,946.4,806.5z"/>
		</g>
		<g id="グループ_1791">
			<path id="パス_1444" class="st4" d="M946.4,806.5c20.8,0,37.6,10.5,37.6,23.4c0,7.8-6.2,14.8-15.7,19l2.8,4.5l-6.1-3.2
				c-6,2.1-12.2,3.1-18.5,3c-20.8,0-37.6-10.5-37.6-23.4S925.6,806.5,946.4,806.5z"/>
		</g>
		<path id="パス_1445" d="M973.8,851.6c-0.5-0.8-0.9-1.5-1.4-2.2l-0.1-0.1c0,0,0-0.1,0-0.1c-0.1-0.1-0.1-0.2-0.2-0.3l-0.3-0.5
			l-0.1-0.2c0-0.1-0.1-0.3-0.1-0.4c-0.1-0.1-0.1-0.2-0.2-0.3c-0.1-0.3-0.1-0.3,0-0.3c0,0,0-0.1-0.1-0.1l0.1,0l0.1,0c0,0,0.1,0,0.1,0
			l0.1-0.1c0.4-0.2,0.8-0.4,1.4-0.7l0-0.1c0.4,0,1.1-0.7,1.4-0.8c-0.1,0-0.2,0-0.2,0l0.6-0.3c-0.3,0.1-0.5,0.1-0.3-0.1
			c0.1,0,0.2,0,0.3-0.1c0,0-0.1,0.1,0,0.1l0-0.1l0,0c0.1,0,0.1-0.1,0.2-0.1c0,0,0,0,0.1,0l0,0c0,0,0,0,0,0c0.2,0,0.2,0.1-0.1,0.3
			c1.2-0.7,2.4-1.5,3.5-2.4h-0.2c0.6-0.4,1.1-0.9,1.6-1.5c0,0,0.2-0.1,0.1,0c0.7-0.5-0.1-0.2,0.7-0.8c-0.2,0.1-0.4,0.3-0.5,0.3
			c0.5-0.4,0.9-0.8,1.3-1.2c0.2-0.4,0.4-0.8,0.7-1.2c0.1-0.1,0.1-0.1,0.2-0.2c0.1-0.1,0.1-0.1,0.1-0.2l0,0c0.1,0,0,0.2-0.1,0.4
			l0.3-0.4l0.1-0.4l0.5-0.5l-0.1-0.1c0.3-0.4,0.6-0.5,0.8-0.9c0.3-0.6,0.6-1.3,0.7-2.1c0.1-0.1,0.2-0.2,0.3-0.4c0,0,0-0.1,0-0.1
			c0-0.1,0.1-0.2,0.1-0.3c0.1-0.1,0.1-0.2,0.1-0.3c0-0.1,0.1-0.3,0.1-0.5c0-0.1,0-0.1,0-0.2c0-0.1,0.1-0.3,0.2-0.4
			c0-0.1,0-0.2,0-0.4c0,0,0,0,0-0.1c0-0.1,0-0.3,0-0.4c0.1-0.1,0.1-0.2,0.1-0.3c0-0.1,0-0.2,0-0.3c0.1-0.1,0.1-0.3,0.1-0.4
			c0-0.2,0-0.3,0.1-0.5l0-0.2c0-0.2,0-0.3,0-0.5c0,0,0-0.1,0-0.1c0-0.1,0-0.2,0-0.3c0,0,0-0.1,0-0.1s0-0.1,0-0.1
			c0.1-0.1,0.1-0.2,0.1-0.4c0-0.1,0-0.3-0.1-0.4c0,0,0-0.1,0-0.1c0-0.1,0-0.2,0-0.3c0-0.1,0-0.2,0-0.3c0-0.1,0-0.3,0-0.4l0,0.2
			c0-0.1,0-0.1,0-0.2c0-0.1,0-0.1,0-0.2c0-0.2,0.1-0.3,0-0.5c0-0.1,0-0.1,0-0.2c0-0.3,0-0.5-0.1-0.8v0.2c0-0.1-0.1-0.2-0.1-0.3
			c0-0.1,0-0.3,0-0.4c0-0.2-0.1-0.3-0.1-0.5l-0.1-0.2c0-0.1-0.1-0.3-0.2-0.4c0-0.1-0.1-0.1-0.1-0.2c0,0,0-0.1,0-0.1c0,0,0,0,0,0
			c-0.2-0.7-0.4-1.5-0.6-2c0.1,0.2-0.1,0.2-0.2-0.2c-0.1-0.3,0.3,0.2,0-0.4c0,0.2-0.1,0.1-0.1-0.1c0-0.2-0.1-0.4-0.2-0.6
			c-0.6-0.9-1.3-1.7-1.9-2.6v0l0,0c-0.4-0.5-0.8-1-1.2-1.5c-0.1-0.1-0.1-0.1-0.2-0.1c0,0-0.1-0.1-0.1-0.1c-0.1-0.1-0.2-0.2-0.3-0.3
			l-0.1-0.1c0,0-0.1-0.1-0.1-0.1c-0.1-0.1-0.2-0.1-0.3-0.2c-0.6-0.6-1.1-1.2-1.8-1.7l-0.1,0c0,0,0,0-0.1-0.1
			c-0.1-0.1-0.2-0.1-0.3-0.2c-0.1-0.2-0.1-0.3-0.6-0.5c-0.1-0.1,0.3,0.3,0.5,0.5l-0.1,0c0,0-0.1,0-0.1-0.1c-0.1,0-0.1-0.1-0.2-0.1
			c0,0-0.1-0.1-0.1-0.1c-0.1-0.1-0.2-0.2-0.3-0.3c-0.2-0.2-0.3-0.4-0.6-0.5l0,0.1l-0.4-0.2c-0.1-0.1-0.2-0.2-0.4-0.2c0,0,0,0,0,0
			c0-0.1-0.1-0.1-0.1-0.2c-0.8-0.8-0.9-0.2-2.1-1c-0.1-0.1-0.1-0.1-0.2-0.2c0-0.1,0.2,0,0-0.2c-1-0.5-1.1-0.7-2.1-1.1
			c-0.7,0,0.5,0.2-0.2,0.2l0.8,0.3c-0.3-0.1-0.3,0-0.2,0c0,0-0.1,0-0.2-0.1c-0.1,0-0.2-0.1-0.3-0.1s-0.2-0.1-0.3-0.1l0,0
			c-0.1-0.1-0.2-0.2-0.3-0.2c-0.1,0-0.1,0-0.2-0.1l0,0c0-0.1-0.1-0.1-0.1-0.1c0.1,0,0.1,0,0.2,0c-0.7-0.3-0.4-0.2-0.3-0.1
			c-0.1,0-0.1-0.1-0.2-0.1c-0.1-0.1-0.3-0.1-0.4-0.1c0,0-0.1,0-0.1,0c-0.6-0.2-1.1-0.5-1.7-0.8c0.1,0.1,0,0.1,0,0.1
			c-0.4-0.1-0.8-0.5-1.3-0.7c-0.2,0-0.1,0.1-0.3,0.1c-0.1,0-0.1-0.1-0.2-0.1c-0.1,0-0.2,0-0.2,0c0,0,0,0-0.1,0
			c-0.1-0.2,0.3-0.2-0.4-0.4c0,0,0.6,0.3,0.3,0.3c-0.6-0.3-0.4-0.1-0.7-0.1c0,0-0.1-0.1-0.1-0.1c-0.1,0-0.2,0-0.3,0
			c-0.3-0.1-0.6-0.1-0.6-0.3c-0.3,0.1-0.2,0.1-0.7,0h0c0.2-0.1-0.9-0.4-0.8-0.5c-0.2,0.1,0.4,0.3,0.3,0.4c0,0,0,0-0.1,0
			c-0.1,0-0.2-0.1-0.3-0.1c-0.1-0.1-0.3-0.1-0.4-0.2c-0.1,0-0.1,0-0.2,0c-0.3-0.1-0.5-0.2-0.5-0.3c-0.3,0-0.7,0-1-0.1
			c0.1,0,0.2,0,0.2,0.1l0,0c-0.9-0.2-1.8-0.5-2.7-0.8c0.1,0.3-1.8-0.2-1.4,0.1c-0.1,0-0.1,0-0.2,0c-0.1,0-0.2,0-0.3-0.1
			c0,0-0.1,0-0.1,0c-0.2,0-0.3-0.1-0.5-0.2c0,0.2-0.6,0-1.1,0c-0.1,0-0.1,0-0.2,0c-0.1,0-0.2,0-0.3,0c-0.3-0.1-0.8-0.1-1.1-0.2
			c0.1,0,0.2,0.1,0.2,0.1c-0.1,0-0.2,0-0.2,0c-0.1,0-0.2,0-0.3,0c-0.1,0-0.2,0-0.4,0c0,0,0-0.1-0.1-0.1c-0.3,0-0.3,0.1-0.3,0.1
			l-0.1,0c-0.1,0-0.1,0-0.2,0l-0.5-0.2c-0.1,0-0.2,0-0.4,0.1h0c-0.3-0.1-0.6-0.1-0.9-0.1l0.7,0L950,804l-0.8-0.2
			c-0.1,0-0.3,0-0.4,0.1c-0.1,0-0.2,0-0.3,0.1c-0.2,0.1-0.4,0.1-0.6,0.1c-0.1,0-0.2,0-0.3,0s-0.2,0-0.3,0c-0.1,0-0.2,0-0.4,0
			c-0.1,0-0.2,0-0.3,0c-0.1,0-0.2,0-0.4,0l-0.7,0c-0.2,0-0.3,0-0.4,0.1h0c0,0,0,0,0,0c0,0-0.1,0-0.1,0.1l0,0c0,0-0.1,0-0.1,0h-0.1
			l-0.1,0c-0.1-0.1-0.3-0.1-0.5-0.1c-0.2,0-0.3,0-0.5,0.1c-0.1,0-0.2,0-0.3,0h0c-0.1,0-0.3,0-0.4,0c-0.1,0-0.2,0-0.3,0
			c0,0-0.1,0-0.1,0c0,0,0,0-0.1,0l0,0l-0.1,0l-0.1,0l0.1,0c0,0-0.1,0-0.1,0c-0.1,0-0.2,0-0.3,0.1c-0.1,0-0.3,0-0.4,0.1l-0.3,0
			c0,0-0.1,0-0.1,0l-0.1,0c-0.1,0-0.1,0-0.2-0.1c0.1,0,0.2,0,0.3,0l0,0c-0.1,0-0.3,0-0.4,0c-0.1,0-0.1,0-0.2,0c0,0-0.1,0-0.1,0
			c-0.1,0-0.3,0.1-0.4,0.1c-0.1,0-0.1,0-0.2,0c0,0-0.1,0-0.1,0c-0.2,0.1-0.5,0.1-0.7,0.1c-0.1,0-0.3,0.1-0.4,0.1
			c-0.1,0-0.2,0.1-0.3,0.1l-0.3,0c-0.1,0-0.3,0-0.4,0.1c-0.1,0-0.3,0.1-0.4,0.1c0,0-0.1,0-0.1,0c-0.1,0-0.1,0-0.2,0c0,0-0.1,0-0.1,0
			c-0.2,0-0.4,0-0.6,0c-0.1,0-0.3,0.1-0.4,0.1c-0.1,0-0.2,0.1-0.3,0.1c-0.1,0-0.2,0-0.3,0c-0.1,0-0.3,0-0.4,0.1
			c-0.1,0-0.3,0.1-0.4,0.2c-0.2,0-0.3,0.1-0.4,0.1c0,0,0,0-0.1,0c-0.2,0-0.3,0-0.5,0c-0.1,0-0.2,0-0.3,0.1c-0.1,0-0.3,0.1-0.4,0.1
			c-0.2,0.1-0.3,0.2-0.5,0.3c0,0-0.1,0.1-0.2,0.1c-0.1,0-0.1,0-0.2,0c-0.2,0-0.4,0-0.5,0c-0.1,0.1-0.3,0.1-0.4,0.2
			c-0.1,0-0.2,0.1-0.2,0.1c-0.1,0-0.2,0.1-0.3,0.1c-0.1,0-0.3,0-0.4,0.1c-0.1,0-0.3,0.1-0.4,0.2h0c-0.1,0-0.2,0-0.3,0.1
			c-0.1,0-0.2,0-0.3,0c-0.2,0-0.3,0-0.5,0.1c-0.2,0.1-0.3,0.2-0.4,0.3c-0.1,0.1-0.1,0.1-0.2,0.1c0,0-0.1,0-0.1,0.1h0l-0.2,0
			c-0.1,0-0.3,0-0.4,0.1c-0.1,0.1-0.3,0.1-0.4,0.2c-0.1,0.1-0.1,0.1-0.2,0.1c-0.1,0-0.2,0.1-0.3,0.1c-0.1,0-0.3,0.1-0.4,0.2
			s-0.3,0.1-0.4,0.2l-0.3,0.1c-0.1,0-0.2,0.1-0.3,0.1c-0.1,0-0.3,0.1-0.4,0.2c-0.1,0.1-0.2,0.1-0.4,0.2c-0.1,0.1-0.2,0.1-0.3,0.2
			c-0.1,0.1-0.2,0.1-0.4,0.2l-0.1,0c-0.1,0-0.1,0-0.2,0.1c-0.1,0-0.2,0.1-0.3,0.1c-0.1,0.1-0.3,0.1-0.4,0.2
			c-0.1,0.1-0.2,0.1-0.4,0.2c-0.1,0.1-0.2,0.1-0.3,0.2c-0.1,0.1-0.2,0.1-0.2,0.2c-0.1,0-0.3,0.1-0.4,0.1c-0.1,0.1-0.2,0.2-0.3,0.3
			c-0.1,0-0.2,0.1-0.3,0.1c-0.1,0.1-0.2,0.2-0.3,0.3c-0.1,0.1-0.2,0.1-0.2,0.2c-0.1,0.1-0.3,0.2-0.4,0.4l0,0c-0.1,0-0.1,0.1-0.2,0.1
			c-0.1,0-0.1,0.1-0.2,0.1c-0.2,0.1-0.3,0.1-0.4,0.2c-0.1,0.1-0.2,0.2-0.3,0.3c-0.1,0.1-0.1,0.1-0.2,0.2c-0.1,0.1-0.1,0.1-0.2,0.2
			c-0.2,0-0.3,0.1-0.4,0.2c-0.1,0.1-0.2,0.3-0.3,0.4l0,0.1c0,0-0.1,0-0.1,0.1c0,0-0.1,0.1-0.1,0.1l-0.1,0c-0.2,0.1-0.3,0.2-0.4,0.3
			c-0.1,0.1-0.2,0.2-0.3,0.3c-0.1,0.1-0.1,0.1-0.2,0.2c0,0-0.1,0.1-0.1,0.1l0,0c-0.2,0.1-0.3,0.2-0.5,0.3c-0.1,0.1-0.2,0.3-0.3,0.5
			c0,0,0,0,0,0.1l-0.1,0.1c0,0,0,0.1-0.1,0.1l-0.1,0c-0.2,0.1-0.4,0.2-0.5,0.3c-0.1,0.1-0.2,0.3-0.2,0.5v0c0,0-0.1,0.1-0.1,0.1
			c-0.1,0.1-0.1,0.1-0.2,0.2c0,0,0,0,0,0c-0.1,0.1-0.2,0.2-0.3,0.3c-0.1,0.1-0.2,0.2-0.2,0.4c0,0.1-0.1,0.2-0.1,0.2
			c-0.1,0.1-0.1,0.2-0.2,0.4l0,0c0,0.1-0.1,0.2-0.1,0.3c0,0,0,0.1-0.1,0.1c-0.2,0.3-0.4,0.5-0.5,0.8c-0.1,0.1-0.2,0.2-0.3,0.3
			c-0.1,0.1-0.1,0.2-0.2,0.3c-0.1,0.1-0.1,0.2-0.2,0.3c-0.1,0.1-0.1,0.3-0.2,0.4c0,0.1-0.1,0.2-0.1,0.3c-0.1,0.2-0.1,0.3-0.1,0.5
			c0,0.1-0.1,0.1-0.1,0.2c0,0.1-0.1,0.2-0.1,0.4c-0.1,0.1-0.1,0.2-0.2,0.3c0,0.1,0,0.2-0.1,0.2c-0.1,0.1-0.2,0.3-0.2,0.4
			c0,0.2-0.1,0.3-0.1,0.5c0,0.1,0,0.2,0,0.3c0,0.1,0,0.1-0.1,0.2l0,0c-0.1,0.1-0.1,0.3-0.2,0.5c0,0.1,0,0.2,0,0.3
			c0,0.1-0.1,0.3-0.1,0.4c0,0.1,0,0.2,0,0.3c-0.1,0.1-0.1,0.3-0.2,0.4c0,0.2,0,0.4,0.1,0.6c0,0.1,0,0.1,0.1,0.2c0,0.1,0,0.2-0.1,0.2
			v0c0,0.1-0.1,0.3-0.1,0.5c0,0.3,0,0.5,0,0.7c0,0.1,0,0.2,0,0.3c0,0.2,0,0.3,0,0.5c0,0.1,0,0.2,0.1,0.3v0l0,0.8
			c0.1,0,0.2,0.5,0.3,0.6c0,0.2,0,0.3,0,0.5c0,0.1,0,0.1,0.1,0.2c0,0,0,0.1,0,0.1c0,0.2,0,0.3,0.1,0.4c0,0.1,0.1,0.3,0.2,0.4l0,0.1
			c0,0.1,0.1,0.1,0.1,0.2c0,0.1,0.1,0.2,0.1,0.2c0.1,0.4,0.2,0.8,0.4,1.1c0,0,0,0,0,0l0,0c0,0.1,0.1,0.2,0.1,0.2
			c0,0.2,0,0.3,0.1,0.5c0.1,0.1,0.2,0.3,0.3,0.3c0,0.1,0.1,0.3,0.1,0.4c0-0.1-0.1-0.3,0-0.3c0.1,0.1,0.1,0.2,0.1,0.2v0
			c0,0.2,0.1,0.4,0.1,0.6c0,0.1,0.1,0.1,0.2,0.2c0,0.1,0.1,0.2,0.2,0.4c-0.1-0.3,0-0.2,0.2,0c-0.1,0,0,0.2,0.1,0.4
			c0-0.3,0.1-0.3,0.2-0.1l0,0c0.1,0.1,0.1,0.2,0.2,0.3c0,0.1,0.1,0.1,0.1,0.2l0,0c0.1,0.2,0.1,0.3,0.2,0.4l0.2,0.2
			c0.1,0.1,0.2,0.2,0.3,0.4l0,0c0,0,0,0.1-0.1,0l-0.1-0.2c-0.1,0,0.2,0.3,0.3,0.5c-0.1-0.1-0.1-0.2-0.1-0.3c0.7,1,1.5,1.9,2.4,2.7
			l0,0h0c0.2,0.2,0.4,0.3,0.5,0.5c0-0.1-0.2-0.2-0.2-0.3l0.1,0c0.1,0,0.2,0.1,0.2,0.2c0.1,0.1,0.2,0.2,0.3,0.2
			c0.2,0.1,0.3,0.3,0.4,0.4l0,0c0.1,0.1,0.2,0.3,0.3,0.4c0.1,0.1,0.2,0.2,0.3,0.2c0.4,0.4,0.8,0.7,1.4,1.2c0.2-0.1-0.8-0.7-1.1-1
			l0,0c0.1,0.1,0.2,0.1,0.4,0.2l0.1,0.1c0,0.1,0.1,0.1,0.2,0.1c0,0,0,0,0.1,0c0.1,0.1,0.2,0.2,0.3,0.2c0.1,0.1,0.1,0.1,0.2,0.2
			c0.1,0,0.1,0.1,0.2,0.1c0.8,0.6,1.7,1.2,2.7,1.9c0.7,0,1.5,1,2.6,1.2c-0.1,0.1,0.3,0.3,0.9,0.6c-0.2-0.2,0.4,0.1,0.3-0.1
			c0.4,0.3,1.8,0.9,1.9,0.7l0,0c0.1,0.2,1.1,0.4,1.4,0.6c0.7,0.1,1.4,0.5,2.2,0.7c-0.3,0.1,0.8,0.3,1.1,0.4c-0.1,0-0.2-0.1-0.2-0.1
			c0.3-0.1,0.9,0.4,1.4,0.4c0.2,0,0-0.1,0.3-0.1c0.5,0.3,1.1,0.4,1.7,0.5c-0.2,0-0.2-0.1-0.3-0.2c2.3,0.5,4.5,0.9,6.9,1.2l-0.4-0.2
			c0.1,0,0.2,0,0.3,0c0,0,0.1,0,0.1,0c0.1,0,0.1,0,0.2,0c0.7,0.1,0.5,0.4,1.4,0.4c3.1,0.1,6.3-0.2,9.4-0.4c0.2,0-0.1,0.1-0.2,0.1
			c0.3,0,0.3-0.2,0.7-0.1l-0.1,0.1c1.3-0.4,4-0.4,4.9-1c1.3-0.1,2.2-0.6,3.8-0.8c0.4-0.2-0.3-0.1-0.1-0.1c0.1,0,0.2,0,0.2,0
			c0.1,0,0.3-0.1,0.4-0.1l0,0l1-0.2l-0.1,0c0.4-0.1,0.8-0.2,1.2-0.3c0.2-0.1,0.5-0.2,0.6-0.3c0,0,0.1,0,0.1-0.1l0.1,0
			c0.3,0.1,0.5,0.2,0.8,0.3c0,0,0.1,0.1,0.1,0.1c0.1,0,0.2,0.1,0.2,0.1c0.2,0.1,0.4,0.2,0.6,0.3c0.1,0.1,0.2,0.2,0.4,0.3
			c0.1,0.1,0.2,0.1,0.3,0.1l0.1,0l0,0c0,0,0.1,0,0.1,0.1l-0.1,0c0.1,0,0.1,0.1,0.2,0.1c0.1,0.1,0.3,0.1,0.4,0.1c0,0,0.1,0,0.1,0
			c-0.1,0-0.3-0.1-0.4-0.1c1,0.6,1.8,1,2.5,1.4C972.2,851.7,974.9,853.3,973.8,851.6z M975.7,812.4c0.5,0.4,1.1,0.8,1.6,1.3
			c0.1,0,0.2,0.1,0.3,0.1l0,0c0.1,0.1,0.2,0.1,0.2,0.2c0.1,0.1,0.2,0.2,0.3,0.3c0.1,0.1,0.3,0.2,0.5,0.2l0,0c0,0,0.1,0.1,0.1,0.1
			c0,0,0,0.1,0.1,0.1c-0.1-0.1-0.1-0.1-0.1-0.1c-0.4-0.2,0,0.1-0.2,0.2c0.3,0.2,0.8,0.8,0.9,0.7c0.2,0.1,0.3,0.2,0.4,0.4
			c0.1,0.1,0.2,0.2,0.3,0.3l0-0.1c0,0,0.1,0,0.1,0c0.5,0.5,1,1.2,1.3,1.9c-0.1-0.3,0-0.3,0.1-0.2c0.1,0.2,0.2,0.3,0.3,0.4
			c0.1,0.1,0.2,0.2,0.4,0.3c0.1,0,0.1,0.1,0.2,0.1c0.1,0.1,0.1,0.2,0.2,0.2c0,0.1,0.1,0.2,0.1,0.3c0,0,0,0.1,0,0.1c0,0,0.1,0,0.1,0
			l0,0v0c0,0.2,0,0.4,0.1,0.6c0.1,0.2,0.2,0.3,0.4,0.4l0.1,0c0,0,0,0,0,0.1c0,0.1,0.1,0.2,0.1,0.2c0,0.1,0.1,0.3,0.1,0.4
			c0,0.1,0.1,0.2,0.1,0.2c0,0,0,0.1,0.1,0.1c0.1,0.1,0.1,0.2,0.2,0.3c0,0,0,0.1,0,0.1v0.1c0,0.2,0,0.3,0.1,0.5
			c0.1,0.2,0.2,0.3,0.3,0.4c0,0,0.1,0.1,0.1,0.1c0,0.2,0,0.3,0,0.6l0.1-0.1c0.1,0.7,0.2,2,0.4,2c-0.3-0.2,0.1,1.5,0,2.1
			c0-0.2,0.1-0.2,0.1-0.3c-0.1,1.3-0.2,2.5-0.4,3.8l0.1,0.1c0,0,0,0.1,0,0.1c0,0.1,0,0.2,0,0.4c-0.2,0.3-0.5,0.5-0.7,1l0.2-0.2
			c-0.3,0.9-0.7,1.8-1.1,2.6l0.1,0c0,0,0,0,0,0s0,0,0,0.1c-0.2,0.3-0.4,0.6-0.7,0.9c-0.3,0.7-0.7,1.3-1.2,1.9
			c-0.7,0.7-1.2,1.4-1.8,2.1l-0.3-0.1c-0.4,0.4-1,0.9-1.1,1.2l0.1-0.1c0.1,0.1-0.1,0.2-0.4,0.4c0,0,0,0-0.1,0
			c-0.1,0.1-0.2,0.1-0.3,0.2c-0.1,0.1-0.2,0.1-0.3,0.2c-0.1,0-0.2,0-0.1-0.1c-1.1,0.9-2.3,1.8-3.6,2.6l-0.2,0.1
			c-0.1,0.1-0.2,0.1-0.4,0.2c-0.2,0.1-0.4,0.2-0.6,0.3c0,0-0.1,0-0.1,0.1c0,0-0.1,0-0.1,0.1c-0.3,0.1-0.6,0.2-0.8,0.3l-0.9,0.3
			l-1.6,0.7c0.3,0.5,0.6,1.1,1,1.6l0,0l0.3,0.4l0.2,0.2c0,0.1,0.1,0.1,0.1,0.2c0.1,0,0.1,0.1,0.2,0.1c0.1,0.1,0.1,0.2,0.2,0.3
			c0,0,0.1,0.1,0.1,0.1c0,0.1,0,0.1-0.1,0.2c-0.2-0.1-0.2-0.2-0.3-0.2l0.2,0.2c-0.1,0-0.4-0.3-0.5-0.3c0,0,0,0.1,0.1,0.1
			c-0.1,0-0.2-0.2-0.3-0.2c0,0,0,0.1,0,0.1c-0.1,0-0.1,0-0.2,0c-0.1,0-0.1-0.1-0.2-0.1c0,0-0.1,0-0.1,0c-0.1,0-0.2-0.1-0.2-0.1
			c-0.2-0.1-0.5-0.3-0.7-0.4c0,0-0.1-0.1-0.1-0.1c0,0,0,0,0,0l-0.2-0.1l-1.1-0.7c-0.3-0.2-0.5-0.3-0.8-0.4l-0.8,0.3
			c0.2-0.1,0.2,0,0.1,0.1c-0.1,0-0.1,0-0.2,0l0,0c-0.7,0-2.2,0.5-2.8,0.6l0.4,0c-1.3,0.2-1,0.5-2.3,0.7l0.7-0.3
			c-0.5,0.2-0.9,0.2-0.8,0.1c-0.6,0.2,0,0.2-0.9,0.4c0,0.1,0.6-0.1,0.4,0.1c-0.1,0-0.2,0.1-0.3,0.1c0,0-0.1,0-0.1,0
			c-0.1,0-0.3,0-0.4,0c-0.1,0-0.2,0-0.4,0.1c-0.1,0-0.1,0-0.2,0c0,0,0,0,0.1-0.1c-0.1,0-0.2,0.1-0.2,0.1c-0.2,0.1-0.4,0.2-0.6,0.1
			c0,0-0.1,0-0.1,0s0,0-0.1,0c0,0,0.1-0.1,0.1-0.1c-0.6,0.1-1.2,0.2-1.7,0.3l-0.3,0c0,0-0.1,0-0.1,0c-0.1,0-0.3,0-0.4,0.1
			c0,0-0.1,0-0.2,0c-0.5,0.1-1,0.1-1.5,0.2h-0.1c0,0,0,0,0,0c-0.1,0-0.3,0-0.4,0c0,0-0.1,0-0.1,0c0,0-0.1,0-0.1,0
			c-0.2,0-0.3,0-0.5,0.1c-0.1,0-0.1,0-0.2,0h0c-0.2,0-0.3,0-0.4,0s-0.2,0-0.3,0c-0.1,0-0.3,0-0.4,0.1c-0.1,0-0.3,0-0.4,0.1l-0.1,0
			c-0.2-0.1-0.3-0.1-0.5-0.1c-0.2,0-0.3,0-0.5,0.1c-0.1,0-0.2,0-0.3,0c-0.2,0-0.3,0-0.5,0.1c-0.1,0-0.1,0-0.2,0
			c-0.5-0.1-1-0.1-1.5-0.1c0.2,0,0.5,0.1,0.9,0.1c0,0-0.1,0-0.1,0h-0.1c-0.1,0-0.1,0-0.2,0c-0.1,0-0.3-0.1-0.5-0.1l0,0
			c-0.1,0-0.3,0-0.4,0h0c0,0,0,0-0.1,0c-0.1,0-0.2,0-0.3,0h-0.1c0,0-0.1,0-0.1,0c0,0-0.1,0-0.1,0h0c0,0-0.1,0-0.1,0
			c-0.1-0.1-0.3-0.1-0.4-0.1c-0.1,0-0.3,0-0.4,0c-0.1,0-0.2-0.1-0.3-0.1l-0.3,0c-0.1,0-0.3,0-0.4,0c-0.1,0-0.1,0-0.2,0h-0.3
			c-0.1,0-0.1,0-0.2,0c-0.1,0-0.1,0-0.2,0c-0.1,0-0.2,0-0.3,0l0,0c-0.1,0-0.2,0-0.3,0h-0.1c-0.3-0.1-0.6-0.1-0.9,0
			c-0.1,0-0.3-0.1-0.4-0.1l-0.4-0.1c-0.1,0-0.2-0.1-0.3-0.1c-0.1,0-0.3,0-0.4,0h-0.1c0,0-0.1,0-0.1,0c-0.1,0-0.2,0-0.3-0.1l-0.1,0
			c-0.1,0-0.2-0.1-0.3-0.1c-0.1,0-0.2,0-0.3-0.1s-0.2-0.1-0.4-0.1s-0.2,0-0.4-0.1s-0.2,0-0.3-0.1c-0.1,0-0.3,0-0.4-0.1l-1-0.2
			c-0.1,0-0.3,0-0.4,0c-0.1,0-0.2,0-0.3,0c-0.1,0-0.2,0-0.3,0l-0.1,0c-0.1,0-0.2-0.1-0.3-0.1c-0.1,0-0.2-0.1-0.4-0.1
			s-0.2-0.1-0.3-0.1c-0.1,0-0.2-0.1-0.3-0.1c-0.1,0-0.2-0.1-0.4-0.1c-0.2,0-0.4,0-0.6,0c0,0-0.1,0-0.1,0l-0.1,0c0,0-0.1,0-0.2,0
			c0,0-0.1,0-0.1,0c-0.1-0.1-0.3-0.1-0.4-0.2c-0.1,0-0.2,0-0.3-0.1c-0.1-0.1-0.2-0.2-0.4-0.2c-0.1,0-0.2,0-0.3,0
			c-0.1-0.1-0.2-0.2-0.4-0.2c-0.1,0-0.2-0.1-0.3-0.1s-0.2-0.1-0.3-0.1c0,0-0.1,0-0.1,0c-0.1-0.1-0.2-0.1-0.2,0c-0.1,0-0.2,0-0.2,0
			l-0.2,0c-0.1,0-0.2-0.1-0.4-0.1s-0.2-0.1-0.3-0.1c-0.1,0-0.1-0.1-0.2-0.1c-0.1-0.1-0.3-0.2-0.4-0.2c-0.1,0-0.2-0.1-0.3-0.1
			c-0.1-0.1-0.2-0.1-0.4-0.2c-0.1,0-0.3-0.1-0.4-0.1l-0.3,0c-0.1,0-0.2-0.1-0.2-0.1l0,0l-0.1,0c0,0,0,0-0.1-0.1l0,0
			c0,0-0.1,0-0.1-0.1c0.1,0,0.1,0,0.2,0.1c0,0,0,0,0.1,0c-0.1,0-0.1-0.1-0.2-0.1c0,0-0.1,0-0.1-0.1c-0.1,0-0.2-0.1-0.3-0.1
			c0,0,0,0-0.1,0c-0.1-0.1-0.3-0.2-0.5-0.2c0,0-0.1-0.1-0.3-0.2c0,0,0,0-0.1,0c0,0-0.1,0-0.1,0l-0.1,0l0,0c-0.1,0-0.2-0.1-0.2-0.1
			c0,0-0.1,0-0.1,0c0,0-0.1-0.1-0.1-0.1c-0.1,0-0.1-0.1-0.2-0.1c0,0-0.1,0-0.1-0.1c-0.1-0.1-0.2-0.2-0.3-0.2c0,0,0,0-0.1,0
			c-0.1-0.1-0.3-0.1-0.4-0.2l-0.1,0c0,0-0.1-0.1-0.1-0.1c-0.1,0-0.2-0.1-0.3-0.1c-0.1-0.2-0.3-0.3-0.6-0.4c-0.2-0.1-0.4-0.3-0.4-0.3
			c-0.1,0-0.2,0-0.2-0.1c-0.1-0.1-0.2-0.2-0.3-0.3c-0.1-0.1-0.2-0.1-0.4-0.2c-0.1,0-0.2-0.1-0.3-0.1l0,0c0,0-0.1-0.1-0.1-0.1
			c0,0-0.1,0-0.1-0.1c-0.1-0.1-0.2-0.2-0.3-0.3c-0.1-0.1-0.2-0.1-0.3-0.1l-0.1-0.1c-0.1-0.1-0.1-0.1-0.2-0.2c0,0,0,0-0.1,0
			c-0.4-0.4-0.8-0.7-1.2-1l-0.1,0.1c-0.1-0.2-0.2-0.3-0.3-0.4c-0.1-0.1-0.2-0.1-0.3-0.2c0-0.1,0,0,0.2,0c-0.6-0.6-0.8-0.5-1.3-1.1
			c-0.2-0.1-0.2,0-0.2,0l0,0c-0.1-0.1-0.2-0.2-0.3-0.2c-0.1-0.1-0.2-0.2-0.3-0.2c-0.1-0.1-0.1-0.1-0.2-0.2c-0.1-0.1-0.1-0.2-0.2-0.4
			c-0.1-0.1-0.1-0.1-0.2-0.2c0,0,0,0,0-0.1c-0.1-0.1-0.1-0.2-0.2-0.3c-0.2-0.2-0.3-0.4-0.4-0.5c-0.1-0.1-0.2-0.3-0.3-0.4l-0.1-0.1
			c0-0.1-0.1-0.1-0.1-0.2c0-0.2,0-0.2,0.2,0c-0.1-0.1-0.3-0.3-0.3-0.3c0-0.1-0.1-0.2-0.2-0.3c-0.3-0.5,0.1-0.4-0.5-1
			c0,0.1,0.1,0.1,0,0.1c-0.1-0.2-0.2-0.3-0.3-0.5c0.2,0.5,0.1,0.3,0,0.3c0-0.1,0-0.1-0.1-0.2c0-0.1-0.1-0.2-0.2-0.3
			c-0.1-0.1-0.1-0.2-0.2-0.3c0-0.1,0.2,0,0.2-0.2c0,0-0.1-0.2-0.3-0.4l0.2,0.2c-0.1-0.2-0.2-0.4-0.3-0.6l0.1,0.4
			c-0.4-0.5-0.7-1.1-0.8-1.8c0,0.1,0,0.1,0,0.2c0,0,0,0,0-0.1c-0.1-0.2-0.2-0.3-0.3-0.4l0,0l0,0l0,0c0,0,0-0.1-0.1-0.1
			c0-0.2-0.1-0.3-0.1-0.5c0,0,0-0.1,0-0.1c0-0.1,0-0.1,0-0.2c0,0,0-0.1,0-0.1c0-0.2,0-0.3,0-0.5c0-0.1,0-0.2-0.1-0.2c0,0,0,0,0-0.1
			c0-0.1,0-0.2,0-0.4c0-0.1-0.1-0.3-0.1-0.4c0-0.2,0-0.3-0.1-0.5c0-0.1,0-0.1,0-0.2c0-0.1,0-0.2,0-0.3c0,0,0,0,0,0s0,0,0,0
			c0-0.1,0-0.3-0.1-0.4c0-0.1,0-0.2,0-0.3c0-0.1,0-0.2,0-0.3c0-0.1,0-0.1,0-0.2v0c0-0.1,0-0.1,0-0.2c0-0.1,0-0.2,0-0.4
			c0-0.1,0-0.2,0-0.3c0-0.1,0-0.2,0-0.3c0.2-0.3,0.2-0.6,0.3-1c0-0.1,0-0.3,0-0.6c0-0.1,0.1-0.1,0.1-0.2c0-0.1,0.1-0.2,0.1-0.3
			c0,0,0,0,0,0c0,0,0-0.1,0-0.1c0-0.1,0.1-0.2,0.1-0.2c0-0.1,0.1-0.2,0.1-0.3c0.1-0.1,0.1-0.2,0.2-0.3c0-0.1,0.1-0.2,0.1-0.4
			c0.1-0.1,0.1-0.2,0.1-0.3c0-0.1,0.1-0.2,0.1-0.3c0.3-0.5,0.6-1,0.8-1.6l-0.2,0.1l0,0c0-0.1,0.1-0.1,0.1-0.2c0-0.1,0.1-0.1,0.2-0.2
			c0.1-0.1,0.2-0.2,0.3-0.4c0.1-0.1,0.1-0.2,0.1-0.3c0.1-0.1,0.1-0.2,0.2-0.3c0.1-0.1,0.1-0.3,0.2-0.4l0.1-0.1
			c0.1-0.2,0.2-0.4,0.5-0.7l-0.1,0.2c0-0.1,0.1-0.1,0.1-0.2c0,0,0.1-0.1,0.1-0.1l0,0c0.2-0.1,0.3-0.2,0.4-0.3c0-0.1,0.1-0.1,0.1-0.2
			l0,0c0.1-0.1,0.2-0.2,0.3-0.3c0.1-0.1,0.2-0.2,0.2-0.3c0,0,0.1-0.1,0.1-0.1c0.1-0.1,0.2-0.2,0.3-0.3l0.3-0.3
			c0.1-0.1,0.2-0.2,0.3-0.4c0,0,0,0,0-0.1c0.1,0,0.1-0.1,0.2-0.1c0.1-0.1,0.2-0.1,0.2-0.2c0.1-0.1,0.2-0.2,0.3-0.2
			c0.1-0.1,0.2-0.2,0.3-0.3c0,0,0,0,0.1-0.1c0.1-0.1,0.2-0.1,0.3-0.2c0,0,0.1,0,0.1-0.1c0.1-0.1,0.3-0.1,0.4-0.2
			c0.1-0.1,0.2-0.2,0.3-0.3c0.1,0,0.2-0.1,0.3-0.1c0.1-0.1,0.3-0.3,0.3-0.5c0-0.1,0-0.1,0.1-0.2c0.1,0,0.1,0,0.2-0.1
			c0.2,0,0.3-0.1,0.5-0.2c0.1-0.1,0.1-0.1,0.2-0.2l0,0c0.1-0.1,0.3-0.1,0.4-0.2l0.2-0.1c0.1-0.1,0.3-0.2,0.4-0.3
			c0.1-0.1,0.2-0.1,0.2-0.2c0.1,0,0.2-0.1,0.4-0.1c0.1-0.1,0.2-0.2,0.3-0.3c0.1,0,0.2-0.1,0.3-0.1c0.1-0.1,0.2-0.2,0.4-0.3
			c0.1-0.1,0.1-0.1,0.2-0.2c0.1,0,0.2-0.1,0.3-0.1c0.1,0,0.2-0.1,0.4-0.2c0,0,0.1-0.1,0.1-0.1l0.1,0c0.2,0,0.3-0.1,0.5-0.1
			c0.1-0.1,0.2-0.1,0.3-0.2c0.1-0.1,0.2-0.1,0.3-0.2c0.1,0,0.2-0.1,0.3-0.1c0.1,0,0.3-0.1,0.4-0.1c0.1-0.1,0.3-0.2,0.4-0.3
			c0.1-0.1,0.1-0.1,0.2-0.1c0,0,0,0,0,0l0.2,0c0,0-0.1,0-0.1,0c0,0,0.1,0,0.1,0c0.1,0,0.3-0.1,0.4-0.1c0.1,0,0.2-0.1,0.3-0.1
			s0.2-0.1,0.3-0.1s0.2-0.1,0.3-0.2l0,0c0.1,0,0.2,0,0.3-0.1c0.2-0.1,0.3-0.2,0.4-0.3c0,0,0.1-0.1,0.2-0.1c0.1,0,0.2,0,0.2,0
			c0.2,0,0.3,0,0.5-0.1c0.1,0,0.1-0.1,0.2-0.1c0,0,0,0,0,0c0.2,0,0.3,0,0.5-0.1c0.1,0,0.3-0.1,0.4-0.2c0.1,0,0.2,0,0.3-0.1
			c0.1,0,0.2-0.1,0.3-0.1s0.2-0.1,0.3-0.1c0.1,0,0.2-0.1,0.3-0.1c0.1,0,0.3-0.1,0.4-0.1c0.2-0.1,0.5-0.1,0.7-0.2
			c0.1,0,0.3-0.1,0.4-0.1l0.3-0.1c0.1,0,0.2-0.1,0.4-0.1c0.1,0,0.2-0.1,0.3-0.1c0.1,0,0.2-0.1,0.2-0.1c0,0,0,0,0.1,0
			c0.1,0,0.2,0,0.4-0.1s0.2-0.1,0.4-0.1c0.1,0,0.2-0.1,0.3-0.1l0.2-0.1c0.2,0,0.3-0.1,0.5-0.1c0.1,0,0.3-0.1,0.4-0.1
			c0.1,0,0.1,0,0.2,0c0,0,0.1,0,0.1,0c0,0,0.1,0,0.1,0c0,0,0.1,0,0.1,0c0.2,0,0.3,0,0.5,0c0.3,0,0.5-0.1,0.7-0.1
			c0.2,0,0.3-0.1,0.4-0.2c0.1,0,0.2-0.1,0.2-0.1c0.1,0,0.2-0.1,0.3-0.1c0.1,0,0.3,0,0.4,0c0.1,0,0.1,0,0.2-0.1
			c0.1,0.1,0.3,0.1,0.4,0.1c0,0,0.1,0,0.1,0c0.1,0,0.3,0,0.4-0.1c0,0,0.1,0,0.1,0c0,0,0.1,0,0.1,0l0.1,0c0.1,0,0.2,0,0.4-0.1
			s0.2,0,0.3-0.1l0.7-0.1c0.2,0,0.3-0.1,0.5-0.1c0.1,0,0.1-0.1,0.2-0.1h0c0.1,0,0.2,0,0.3,0c0.1,0,0.2,0,0.3,0h0.1
			c0.1,0,0.2,0,0.2,0h0.2c0.1,0,0.1,0,0.2,0c0.1,0,0.3,0,0.4-0.1c0,0,0.1,0,0.1,0c0.1,0,0.2,0,0.3-0.1c0.1,0,0.2,0,0.3,0
			c0.1,0,0.2,0,0.3,0l0.4,0c0.1,0,0.3,0,0.4,0c0.1,0,0.2,0,0.3,0c0.1,0,0.3,0.1,0.4,0.1c0.2,0,0.3,0,0.5-0.1c0.2,0,0.5-0.1,0.7,0
			l0.3,0h0.1c0.2,0,0.4,0.1,0.5,0.1c0.7,0,0.8-0.1,0.8-0.1h0.1l0.4,0c0.1,0,0.1,0,0.2,0h0.1c0.1,0,0.1,0,0.2,0
			c0.1,0,0.3,0.1,0.4,0.1c0.1,0,0.2,0,0.2,0.1c0.1,0.1,0.3,0.1,0.5,0.1c0.2,0,0.3,0,0.5-0.1c0.1,0,0.1,0,0.2,0c0.1,0,0.2,0,0.3,0.1
			c0.1,0,0.3,0.1,0.4,0.1c0.1,0,0.3,0,0.4,0c0.1,0,0.1,0,0.2,0c0,0,0,0,0.1,0c0,0,0,0,0,0c0.1,0,0.2,0,0.3,0h0c0.1,0,0.2,0,0.4,0
			c0.1,0,0.1,0.1,0.2,0.1c0.1,0.1,0.3,0.2,0.5,0.2c0,0,0.1,0,0.1,0c0.2,0,0.3,0,0.4-0.1c0.1,0,0.1,0,0.2,0c0.1,0,0.2,0,0.3,0
			c0.1,0.1,0.3,0.1,0.4,0.2c0.1,0,0.2,0,0.3,0.1c0.1,0,0.3,0.1,0.4,0.1l0.3,0c0.1,0,0.3,0,0.4,0.1c0.1,0,0.1,0,0.2,0
			c0.1,0,0.1,0,0.2,0c0.1,0,0.2,0.1,0.3,0.1c0.1,0,0.2,0,0.3,0c0.1,0.1,0.2,0.1,0.3,0.2c0.1,0,0.3,0.1,0.4,0.1l0.3,0.1
			c0.1,0,0.3,0,0.4,0.1c0.1,0,0.2,0,0.3,0c0.1,0,0.2,0.1,0.3,0.1c0.1,0.1,0.3,0.1,0.4,0.1c0.1,0,0.3,0.1,0.4,0.1c0.1,0,0.2,0,0.3,0
			c0.1,0,0.2,0.1,0.2,0.1c0.1,0.1,0.3,0.1,0.4,0.2c0.2,0,0.4,0,0.6,0c0.1,0,0.1,0,0.2,0c0,0,0,0,0.1,0c0,0,0,0,0.1,0.1
			c0.2,0.3,0.6,0.5,1,0.4c0.1,0,0.1,0.1,0.2,0.1c0.1,0,0.3,0.1,0.4,0.1c0,0,0.1,0,0.1,0c0.1,0,0.1,0.1,0.2,0.1
			c0.1,0,0.3,0.1,0.4,0.1l0,0l0.3,0.1c0,0,0,0,0,0l0,0c0.1,0,0.1,0.1,0.2,0.1c0.1,0.1,0.2,0.1,0.4,0.2l0.3,0.1l0.4,0.2
			c0.1,0,0.1,0,0.2,0.1l0,0c0.1,0.1,0.3,0.2,0.4,0.3c0.1,0.1,0.3,0.1,0.4,0.1c0.1,0,0.2,0,0.3,0.1c0.1,0,0.2,0.1,0.3,0.1l0,0
			c0.1,0.1,0.2,0.2,0.3,0.2c0.1,0,0.2,0.1,0.3,0.1c0.1,0.1,0.2,0.2,0.3,0.3c0.1,0.1,0.2,0.1,0.3,0.1s0.2,0.1,0.3,0.1
			c0,0,0.1,0,0.1,0c0.1,0,0.1,0.1,0.2,0.1c0.1,0.1,0.2,0.1,0.3,0.2c0.2,0.1,0.3,0.1,0.5,0.1c0.1,0,0.1,0,0.2,0l0,0
			c0,0,0.1,0.1,0.1,0.1l0,0c0.1,0.1,0.2,0.3,0.4,0.4c0.1,0.1,0.2,0.1,0.3,0.1c0,0,0.1,0,0.1,0c0.1,0,0.2,0.1,0.3,0.1
			c0.1,0.1,0.2,0.1,0.2,0.2c0.1,0.1,0.2,0.2,0.3,0.3c0.1,0.1,0.2,0.1,0.3,0.1c0.1,0.1,0.2,0.2,0.3,0.3
			C975.4,812.2,975.5,812.3,975.7,812.4C975.6,812.4,975.7,812.4,975.7,812.4L975.7,812.4z M917.6,840.7c0.1,0.1,0.3,0.3,0.4,0.4
			c0,0,0,0-0.1,0c-0.1-0.1-0.1-0.1-0.2-0.2L917.6,840.7z M948.7,850.9c0.1,0,0.2,0,0.3,0c0,0,0,0,0,0
			C949,850.9,948.9,850.9,948.7,850.9C948.8,850.9,948.8,850.9,948.7,850.9z M942.3,850.6l0.5,0.1c0,0-0.1,0-0.1,0
			C942.6,850.7,942.5,850.6,942.3,850.6z M979.4,815.5c0,0-0.1,0-0.3-0.2c0,0,0-0.1,0-0.1l0,0l0,0L979.4,815.5z M979.6,815.6
			L979.6,815.6L979.6,815.6L979.6,815.6z M981.7,816.5l0.2,0.2c0,0,0,0,0,0c0,0,0,0,0,0S981.7,816.6,981.7,816.5L981.7,816.5z"/>
		<path id="パス_1446" d="M953.1,804.4l0.2,0C953.2,804.4,953.1,804.4,953.1,804.4z"/>
		<path id="パス_1447" d="M950.3,804.1C950.3,804.1,950.2,804.1,950.3,804.1l0.1,0L950.3,804.1z"/>
	</g>
	<g id="かんたん">
		<g id="グループ_2128">
			<path id="パス_1791" d="M924.3,824.6c0.3-0.1,0.5-0.1,0.8-0.1c0-0.5,0-0.9,0-1.1c0-0.8,0.4-1.1,1.1-1.1c0.8,0,1.1,0.4,1,1.1
				c0,0.2,0,0.5,0,1h1.1c0.6,0,1.2,0.2,1.6,0.7c0.4,0.6,0.7,1.4,0.7,2.2c0.1,0.7,0.1,1.5,0.1,2.2c0,0.7-0.1,1.4-0.2,2.1
				c-0.1,0.6-0.3,1.1-0.7,1.5c-0.3,0.4-0.8,0.6-1.4,0.6c-0.3,0-0.6,0-0.9-0.1c-0.5-0.1-0.9-0.5-0.8-1c0-0.1,0-0.1,0-0.2
				c0.1-0.6,0.4-0.9,0.9-0.9c0.1,0,0.3,0,0.4,0c0.2,0,0.4-0.3,0.5-0.7c0.1-0.5,0.1-1,0.1-1.6c0-0.6,0-1.2-0.1-1.8
				c0-0.4-0.1-0.6-0.2-0.7c-0.2-0.1-0.5-0.2-0.7-0.2c-0.1,0-0.2,0-0.3,0c-0.1,0-0.2,0-0.3,0c-0.1,1.2-0.3,2.5-0.6,3.7
				c-0.2,0.9-0.5,1.8-0.8,2.7c-0.2,0.5-0.7,0.7-1.3,0.6c-0.6-0.2-0.8-0.6-0.6-1.2c0.3-0.6,0.5-1.3,0.6-2c0.3-1.2,0.5-2.4,0.6-3.6
				c-0.3,0-0.5,0.1-0.6,0.1c-0.6,0.1-0.9-0.3-0.9-1.1C923.6,825,923.8,824.7,924.3,824.6z M930.2,823.6c-0.2-0.4,0-0.8,0.6-1
				c0.5-0.2,1,0,1.2,0.5c0.7,1.3,1.1,2.7,1.3,4.1c0.1,0.6-0.1,0.9-0.8,1.1c-0.6,0.1-1-0.1-1.1-0.7
				C931.2,826.2,930.8,824.8,930.2,823.6L930.2,823.6z"/>
			<path id="パス_1792" d="M938.8,823.2c0.1-0.6,0.7-1,1.3-0.9c0.1,0,0.1,0,0.2,0c0.5,0.1,0.8,0.6,0.8,1.1c0,0.1,0,0.2-0.1,0.3
				c-0.4,1.2-0.7,2.2-1,3.1c0.2-0.2,0.4-0.3,0.7-0.4c0.4-0.2,0.9-0.2,1.3,0c0.4,0.2,0.8,0.6,0.8,1.1c0.1,0.5,0.1,1.1,0.1,1.6
				c0,0.5,0,0.9,0,1.4c0,0.4,0.2,0.6,0.4,0.7c0.4-0.1,0.8-0.3,1.1-0.7c0.3-0.4,0.9-0.4,1.2-0.1c0,0,0,0,0.1,0.1
				c0.4,0.4,0.4,1.1,0,1.5c-0.2,0.3-0.5,0.6-0.8,0.9c-0.3,0.2-0.6,0.4-0.9,0.6c-0.3,0.2-0.7,0.3-1.1,0.3c-0.7,0-1.4-0.4-1.7-1
				c-0.3-0.8-0.5-1.7-0.4-2.5c0-0.4,0-0.8,0-1.3c-0.1-0.3-0.3-0.4-0.6-0.3c-0.2,0.1-0.5,0.2-0.6,0.4c-0.2,0.2-0.3,0.5-0.4,0.8
				c-0.1,0.3-0.2,0.6-0.3,0.8c-0.1,0.5-0.3,1.3-0.6,2.4c-0.1,0.7-0.6,0.9-1.4,0.8c-0.5-0.2-0.8-0.7-0.7-1.3c0,0,0,0,0,0
				c0.1-0.6,0.3-1.4,0.6-2.5s0.6-2.3,1-3.6C938.1,825,938.5,824,938.8,823.2z"/>
			<path id="パス_1793" d="M948.7,824.7c-0.1-0.5,0.3-0.9,0.7-1c0.1,0,0.2,0,0.2,0h0.9c0.1-0.5,0.1-0.8,0.1-0.8
				c0-0.5,0.4-0.9,0.9-0.9c0,0,0.1,0,0.1,0c0.6,0.1,0.9,0.4,0.9,0.9l-0.1,0.8h1c0.5,0,1,0.5,1,1c0,0.5-0.4,0.9-1,1h-1.2
				c-0.2,1.6-0.4,3-0.7,4.1c-0.2,1.2-0.4,2.1-0.6,3c-0.1,0.5-0.6,0.9-1.2,0.7c0,0,0,0-0.1,0c-0.7-0.1-0.9-0.5-0.7-1.2
				c0.2-0.6,0.4-1.6,0.7-2.9s0.5-2.6,0.6-3.7h-0.7c-0.5,0.1-0.9-0.3-1-0.7C948.7,824.9,948.7,824.8,948.7,824.7z M952.7,829.5
				c0.2-0.4,0.7-0.7,1.1-0.5c0.6,0.3,0.7,0.6,0.5,1c-0.1,0.3-0.1,0.6-0.1,0.9c0,0.4,0.5,0.6,1.3,0.6c0.5,0,1.2,0,1.9-0.1
				c0.6,0,0.9,0.4,1,1.1c0,0.7-0.3,1-1,1.1c-1,0-1.9,0-2.5,0c-0.6,0-1.1-0.1-1.6-0.4c-0.4-0.2-0.6-0.5-0.8-0.9
				c-0.2-0.4-0.2-0.7-0.2-1.1C952.3,830.5,952.5,830,952.7,829.5z M957.2,825.5c0.6,0,0.9,0.3,0.9,1c0,0.6-0.3,1-0.8,1
				c-1.2,0-2.1,0.1-2.7,0.1c-0.6,0-0.8-0.3-0.8-1c0-0.6,0.3-0.9,0.7-1C955.1,825.6,956.1,825.5,957.2,825.5z"/>
			<path id="パス_1794" d="M964,823.2c0.1-0.6,0.7-1,1.3-0.9c0.1,0,0.1,0,0.2,0c0.5,0.1,0.8,0.6,0.8,1.1c0,0.1,0,0.2-0.1,0.3
				c-0.4,1.2-0.7,2.2-1,3.1c0.2-0.2,0.4-0.3,0.7-0.4c0.4-0.2,0.9-0.2,1.3,0c0.4,0.2,0.8,0.6,0.8,1.1c0.1,0.5,0.1,1.1,0.1,1.6
				c0,0.5,0,0.9,0,1.4c0,0.4,0.2,0.6,0.4,0.7c0.4-0.1,0.8-0.3,1.1-0.7c0.3-0.4,0.9-0.4,1.2-0.1c0,0,0,0,0.1,0.1
				c0.4,0.4,0.4,1.1,0,1.5c-0.2,0.3-0.5,0.6-0.8,0.9c-0.3,0.2-0.6,0.4-0.9,0.6c-0.3,0.2-0.7,0.3-1.1,0.3c-0.7,0-1.4-0.4-1.7-1
				c-0.3-0.8-0.5-1.7-0.4-2.5c0-0.4,0-0.8,0-1.3c-0.1-0.3-0.3-0.4-0.6-0.3c-0.2,0.1-0.5,0.2-0.6,0.4c-0.2,0.2-0.3,0.5-0.4,0.8
				c-0.1,0.3-0.2,0.6-0.3,0.8c-0.1,0.5-0.3,1.3-0.6,2.4c-0.1,0.7-0.6,0.9-1.4,0.8c-0.5-0.2-0.8-0.7-0.7-1.3c0,0,0,0,0,0
				c0.1-0.6,0.3-1.4,0.6-2.5s0.6-2.3,1-3.6C963.4,825,963.7,824,964,823.2z"/>
		</g>
	</g>
	<g id="グループ_1804" transform="translate(-8.492 -3.476)">
		<g id="グループ_1795" transform="translate(895.883 896.345)">
			<g id="グループ_1793" transform="translate(6.443)">
				<path id="パス_1448" class="st8" d="M12.5-81.4C12.5-81.4,12.6-81.3,12.5-81.4C12.6-81.3,12.5-81.4,12.5-81.4z"/>
				<path id="パス_1449" class="st8" d="M11.6-72.9c-0.1-0.1,0,0-0.1,0.2l0,0.2C11.6-72.7,11.6-72.8,11.6-72.9z"/>
				<path id="パス_1450" class="st8" d="M19.3-79.1L19.3-79.1L19.3-79.1c-0.1,0-0.1,0-0.2,0l0,0h-0.1l-0.2,0c0,0,0,0,0,0l-0.1,0
					c-1.1,0-2.1-0.2-3.2-0.4c-1.1-0.2-2.1-0.8-2.8-1.6c-0.2-0.1-0.2,0.1-0.4,0c0-0.1-0.2-0.2-0.1-0.3c0.1,0.1,0.1,0,0.2,0
					c-0.2-0.2-0.3-0.6-0.5-0.7v0.2c-0.1-0.1-0.1-0.2-0.2-0.3c0.1,0,0.1-0.2,0.2-0.1c-0.5-0.4-0.1-0.4-0.3-0.8
					c-0.2,0-0.6-0.5-0.8-0.9l0-0.2c0.1,0.3,0.2,0,0.2,0.3c0-0.2,0-0.4-0.1-0.6c0-0.1,0-0.2,0-0.3l0,0l0-0.1c0,0.1,0,0.1,0,0.2l0,0
					c0,0.1-0.1,0-0.1,0c0,0,0-0.1,0-0.1c0-0.1,0.1-0.2,0.1-0.3L11-85c0.1-0.1-0.1-0.2-0.1-0.4c0.1-0.1,0.1-0.3,0.2-0.3
					C11-86,11-86.1,10.9-86.3c-0.1,0.2-0.1,0.1-0.2,0v-0.1l-0.1-0.2l0.1-0.1c0,0.1,0.1,0.1,0.2,0.1l0,0c0.1,0.2,0.1,0.4,0.2,0.6
					c0.1-0.2,0.1-0.5,0-0.8h-0.2c0-0.1,0-0.2-0.1-0.2l0-0.1c0.1,0,0.1-0.1,0.1-0.2c0,0,0,0.1-0.1,0.1c0-0.1,0-0.2-0.1-0.3l0-0.1
					c0-0.1,0-0.2,0-0.3v0l-0.1-0.2c0-0.3-0.1-0.5-0.4-0.6c-0.3-0.1-0.6,0.1-0.7,0.3l0,0.1l0,0l-0.1,0.4v0c-0.1,0.1-0.1,0.2,0,0.3
					c0,0.1,0,0.2,0,0.3c0,0.1-0.1,0.2-0.1,0.3c0,0,0,0-0.1-0.1c0,0.1,0,0.2,0.1,0.2c0,0.1,0,0.1,0,0.2c0,0.1-0.1,0.1-0.1,0.2H9.1
					c-0.1,0.3,0,0.5,0,0.8c0-0.2,0.1-0.4,0.2-0.6c0.1,0,0.2-0.1,0.2-0.2l0.1,0.1l-0.1,0.2v0.3c-0.1,0.1-0.1,0.3-0.2,0
					c-0.1,0.3,0,0.4-0.2,0.6c0.1,0,0.1,0.3,0.2,0.3c0,0.1-0.1,0.2-0.1,0.4l0.1-0.2c0,0.1,0,0.2,0.1,0.3c0,0.1,0,0.1,0,0.2
					c0,0.1-0.1,0.1-0.1,0c0-0.1,0-0.2,0-0.2c0,0,0,0.1,0,0.1l0,0v0c0,0.1,0,0.2,0,0.4c-0.1,0.2-0.1,0.3-0.1,0.5
					c0.1-0.3,0.2,0,0.2-0.3l0,0.2C9.1-83.5,8.8-83,8.5-83c-0.2,0.4,0.1,0.5-0.3,0.8c0.1-0.1,0.1,0.1,0.2,0.1c0,0.1-0.1,0.2-0.2,0.3
					l0-0.2c-0.2,0.2-0.3,0.5-0.5,0.7c0.1,0,0.1,0.1,0.2,0C8-81.3,7.9-81.1,7.8-81c-0.2,0.1-0.2-0.1-0.4,0c-0.8,0.8-1.7,1.4-2.8,1.6
					c-1,0.2-2.1,0.3-3.2,0.4l-0.1-0.1c0,0,0,0,0,0.1c-0.1,0-0.2,0-0.2,0H1.1l0,0c0,0-0.1,0-0.1,0v0H1c-0.6,0.1-1,0.6-1,1.2
					c0,0.6,0.4,1.1,1,1.1c0,0,0,0,0,0l0,0l0.4,0v0l0,0l0,0c1.7,0,3.3,0.3,4.8,0.9l0,0c0.6,0,0.1,0.5,0.7,0.4c0.1,0.5,0.6,0.5,0.7,1
					l0.1,0c0,0.4,0.5,0.5,0.5,0.9c0.1,0.1,0.3,0.1,0.3,0.3c0,0-0.2,0,0,0.1l0.1-0.2c0.1,0.2,0.2,0.4,0.2,0.7l0.1,0.3l0-0.1
					c0,0.1,0.1,0.1,0.1,0.2c0,0.3,0.1,0.7,0.1,1.1C9-71.1,8.9-71,9-70.8l0.1-0.1c0,0.2,0,0.4,0,0.5l0.1,0c0.1,0.4,0,0.7,0.2,0.9
					l0,0.1h0c0,0,0,0,0,0.1l0,0.1c0,0,0,0,0,0c0,0,0.1,0.1,0.1,0.1v0.1c0,0,0,0,0,0.1c0,0,0-0.1-0.1-0.1l-0.1,0.2l0.1,0
					c0,0-0.1,0.1-0.1,0c0,0.1,0,0.2,0.1,0.2l0,0c0,0.1,0,0.1,0,0.1c0,0,0,0,0,0l0,0.1v0.1c0,0,0,0.2-0.1,0.2c0,0.1,0,0.2,0,0.3v0.1
					c0,0.3,0.1,0.5,0.3,0.7c0.2,0.2,0.4,0.3,0.6,0.3c0.5,0,1-0.4,1-1c0,0,0,0,0,0v-0.1c0-0.1,0-0.2,0-0.3C11-68,11-68.1,11-68.2
					l0-0.1l0-0.1c0,0,0,0,0,0c0,0,0-0.1,0-0.1l0,0l0,0v0c0-0.1,0-0.2,0-0.2h0l0-0.1l0,0h0l0-0.1l0,0c0,0,0-0.1,0-0.1
					c0-0.1,0.1-0.1,0.1-0.3c0,0,0,0,0,0l0-0.2l0-0.1c0.2-0.3,0.1-0.5,0.2-0.9l0.1,0c-0.1-0.2-0.1-0.4,0-0.5l0.1,0.1
					c0.1-0.2,0-0.2-0.1-0.3c0-0.2,0-0.4,0-0.6l0.1,0.3c0.1-0.3,0-0.3,0-0.6c-0.1,0.1,0,0.3-0.1,0.4l0-0.1c0-0.2,0-0.4,0.1-0.6
					c0,0,0-0.1,0.1-0.1l0,0.1l0.1-0.3c0-0.2,0-0.5,0.2-0.7l0.1,0.2c0.1-0.1,0-0.1,0-0.2c0-0.3,0.1-0.3,0.3-0.3
					c0-0.5,0.6-0.5,0.5-0.9l0.1,0c0.1-0.5,0.6-0.6,0.7-1c0.6,0,0.1-0.5,0.7-0.5l0,0c1.6-0.6,3.2-0.9,4.8-0.9l0,0l0,0v0l0.4,0
					c0.6,0,1-0.5,1-1.1v0C20.3-78.5,19.9-79.1,19.3-79.1z M10.8-86c0-0.5,0,0.2,0.2,0.1C11-85.8,10.9-85.9,10.8-86l0-0.1L10.8-86z
					 M9.5-86L9.5-86c0,0.1-0.1,0.2-0.1,0.2l-0.1,0l0,0l0,0C9.4-85.8,9.4-86.4,9.5-86L9.5-86z M10.9-69.3
					C10.9-69.3,10.9-69.3,10.9-69.3L10.9-69.3z"/>
				<path id="パス_1451" class="st8" d="M11.1-85.3c0,0.2,0.1,0.3,0.2,0.5c0-0.1,0-0.2-0.1-0.1C11.3-85.1,11.2-85.3,11.1-85.3z"/>
				<path id="パス_1452" class="st8" d="M11.5-83.6c-0.1-0.1-0.1-0.2-0.1-0.1C11.4-83.6,11.5-83.5,11.5-83.6z"/>
				<path id="パス_1453" class="st8" d="M11.4-72.2l0.1,0.1c0,0,0-0.1,0-0.1C11.5-72.2,11.4-72.2,11.4-72.2z"/>
				<path id="パス_1454" class="st8" d="M7.7-81.2C7.7-81.3,7.7-81.3,7.7-81.2C7.7-81.3,7.7-81.3,7.7-81.2z"/>
				<path id="パス_1455" class="st8" d="M8.7-72.8c0,0.1,0,0.2,0.1,0.3l0-0.2C8.7-72.8,8.8-72.9,8.7-72.8z"/>
				<path id="パス_1456" class="st8" d="M9-84.9c-0.1,0,0,0.1-0.1,0.1c0.1-0.1,0.1-0.3,0.2-0.5C9.1-85.2,9-85,9-84.9z"/>
				<path id="パス_1457" class="st8" d="M8.9-83.6c-0.1,0-0.1,0.1-0.1,0.1C8.8-83.4,8.9-83.6,8.9-83.6z"/>
				<path id="パス_1458" class="st8" d="M8.8-72.1C8.8-72.1,8.8-72,8.8-72.1l0.1,0C8.9-72.2,8.8-72.2,8.8-72.1z"/>
				<path id="パス_1459" class="st8" d="M9-71.7C9-71.8,9-72,9-72.1c0,0.3-0.1,0.3,0,0.6L9-71.7L9-71.7z"/>
			</g>
			<g id="グループ_1794" transform="translate(0 22.314)">
				<path id="パス_1460" class="st8" d="M8-84.1C8-84.1,8-84.1,8-84.1C8-84.1,8-84.1,8-84.1z"/>
				<path id="パス_1461" class="st8" d="M7.4-78.7C7.3-78.7,7.4-78.6,7.4-78.7l-0.1,0.2C7.4-78.5,7.4-78.6,7.4-78.7z"/>
				<path id="パス_1462" class="st8" d="M12.3-82.7L12.3-82.7L12.3-82.7l-0.1,0h0c0,0-0.1,0-0.1,0l0,0l-0.1,0
					c-0.7,0-1.4-0.1-2-0.2c-0.7-0.1-1.3-0.5-1.8-1C8.1-84,8-83.9,7.9-84c0,0-0.1-0.1-0.1-0.2c0.1,0.1,0.1,0,0.1,0
					c-0.1-0.1-0.2-0.4-0.3-0.5v0.2c-0.1-0.1-0.1-0.1-0.1-0.2c0,0,0.1-0.1,0.1-0.1c-0.3-0.2,0-0.3-0.2-0.5c-0.2,0-0.4-0.3-0.5-0.6
					l0-0.1c0,0.2,0.1,0,0.1,0.2c0-0.1,0-0.3-0.1-0.4c0-0.1,0-0.1,0-0.2l0,0l0-0.1c0,0,0,0.1,0,0.1l0,0c0,0-0.1,0-0.1,0v-0.1
					c0-0.1,0.1-0.1,0.1-0.2L7-86.5c0-0.1,0-0.2-0.1-0.2c0.1,0,0-0.2,0.1-0.2C7-87.1,7-87.1,7-87.3c0,0.2-0.1,0-0.1,0v-0.1l-0.1-0.2
					l0-0.1c0,0,0.1,0.1,0.1,0.1h0c0,0.1,0.1,0.2,0.1,0.4c0-0.2,0.1-0.3,0-0.5H7c0-0.1,0-0.1-0.1-0.1l0-0.1C6.9-87.9,7-88,7-88
					c0,0,0,0.1,0,0.1c0-0.1,0-0.1-0.1-0.2l0-0.1c0-0.1,0-0.1,0-0.2v0l0-0.1c0-0.2-0.1-0.3-0.3-0.4c-0.2-0.1-0.4,0-0.4,0.2l0,0l0,0
					l-0.1,0.2v0c0,0.1,0,0.1,0,0.2c0,0.1,0,0.1,0,0.2C6-88,6-88,6-87.9c0,0,0,0,0-0.1c0,0.1,0,0.1,0,0.2l0,0.1c0,0,0,0.1,0,0.1H5.8
					c0,0.2,0,0.3,0,0.5c0-0.1,0.1-0.3,0.1-0.4c0.1,0,0.1,0,0.1-0.1l0,0l-0.1,0.2v0.2c0,0-0.1,0.2-0.1,0c-0.1,0.2,0,0.2-0.1,0.4
					c0.1,0,0.1,0.2,0.1,0.2c0,0.1-0.1,0.1-0.1,0.2L6-86.5c0,0.1,0,0.1,0,0.2v0.1c0,0-0.1,0-0.1,0c0-0.1,0-0.1,0-0.2c0,0,0,0.1,0,0.1
					v0c0,0.1,0,0.2,0,0.2c0,0.1-0.1,0.2-0.1,0.3c0-0.2,0.1,0,0.1-0.2l0,0.1c-0.2,0.2-0.4,0.6-0.5,0.6c-0.2,0.2,0.1,0.3-0.2,0.5
					c0,0,0.1,0.1,0.1,0.1c0,0.1-0.1,0.1-0.1,0.2v-0.2c-0.1,0.1-0.2,0.3-0.3,0.5c0,0,0,0.1,0.1,0c0,0,0,0.1-0.1,0.2
					c-0.1,0.1-0.1-0.1-0.2,0c-0.5,0.5-1.1,0.9-1.8,1c-0.7,0.1-1.4,0.2-2,0.2l-0.1,0l0,0H0.7l0,0v0H0.6c-0.4,0-0.6,0.4-0.6,0.7
					c0,0.4,0.3,0.7,0.7,0.7h0.2v0l0,0l0,0C2-81.2,3-81,4-80.7l0,0c0.4,0,0.1,0.3,0.4,0.3c0.1,0.3,0.4,0.4,0.5,0.7l0.1,0
					c0,0.3,0.3,0.3,0.4,0.6c0.1,0,0.2,0,0.2,0.2c0,0-0.1,0,0,0.1l0.1-0.1c0.1,0.1,0.1,0.3,0.1,0.4l0.1,0.2l0-0.1l0.1,0.1
					c0,0.2,0,0.4,0.1,0.7c0,0.1-0.1,0.1-0.1,0.2l0.1,0c0,0.1,0,0.2,0,0.3l0,0c0.1,0.3,0,0.4,0.1,0.6l0,0l0,0v0l0,0.1l0,0
					c0,0,0,0,0,0.1v0.1l0,0c0,0,0-0.1,0-0.1l-0.1,0.1H6c0,0,0,0-0.1,0c0,0,0,0.1,0,0.1l0,0l0,0.1h0l0,0c0,0,0,0,0,0.1
					c0,0,0,0.1-0.1,0.1v0.2c0,0.2,0.1,0.3,0.2,0.5c0.1,0.1,0.2,0.2,0.4,0.2c0.3,0,0.6-0.3,0.6-0.6v0c0-0.1,0-0.1,0-0.2
					c-0.1,0,0-0.1-0.1-0.1l0-0.1l0,0h0v-0.1l0,0h0v0c0-0.1,0-0.1,0-0.2h0l0,0v0h0l0-0.1l0,0c0,0,0,0,0-0.1c0-0.1,0.1-0.1,0-0.2l0,0
					l0-0.1l0,0c0.1-0.2,0.1-0.3,0.1-0.6l0,0c0-0.1,0-0.2,0-0.3l0.1,0c0.1-0.1,0-0.1-0.1-0.2c0-0.1,0-0.2,0-0.4l0.1,0.2
					c0-0.2,0-0.2,0-0.4c0,0.1,0,0.2,0,0.2l0,0c0-0.1,0-0.3,0-0.4l0-0.1l0,0.1l0.1-0.2c0-0.1,0-0.3,0.1-0.4l0.1,0.1
					c0.1-0.1,0-0.1,0-0.1c0-0.2,0.1-0.2,0.2-0.2c0-0.3,0.4-0.3,0.3-0.6l0.1,0c0.1-0.3,0.4-0.4,0.5-0.7c0.4,0,0.1-0.3,0.4-0.3l0,0
					c1-0.4,2-0.6,3.1-0.6l0,0l0,0v0h0.2c0.4,0,0.7-0.3,0.7-0.7c0,0,0,0,0,0C13-82.3,12.7-82.6,12.3-82.7z M6.9-87.1
					c0-0.3,0,0.1,0.1,0.1C7-86.9,6.9-87,6.9-87.1L6.9-87.1L6.9-87.1z M6-87.1L6-87.1C6-87,6-87,6-86.9l0,0l0,0l0,0
					C6-87,6-87.4,6-87.1L6-87.1z M7-76.4C7-76.4,7-76.4,7-76.4L7-76.4z"/>
				<path id="パス_1463" class="st8" d="M7.1-86.6c0,0.1,0.1,0.2,0.1,0.3c0,0,0-0.1,0-0.1C7.2-86.5,7.1-86.6,7.1-86.6z"/>
				<path id="パス_1464" class="st8" d="M7.3-85.5C7.3-85.6,7.3-85.6,7.3-85.5C7.2-85.6,7.3-85.5,7.3-85.5z"/>
				<path id="パス_1465" class="st8" d="M7.3-78.2L7.3-78.2C7.3-78.2,7.3-78.2,7.3-78.2C7.3-78.3,7.3-78.2,7.3-78.2z"/>
				<path id="パス_1466" class="st8" d="M4.9-84C4.9-84,4.9-84.1,4.9-84C4.9-84.1,4.9-84.1,4.9-84z"/>
				<path id="パス_1467" class="st8" d="M5.5-78.6c0,0.1,0,0.1,0.1,0.2l0-0.1C5.5-78.6,5.6-78.7,5.5-78.6z"/>
				<path id="パス_1468" class="st8" d="M5.8-86.4C5.7-86.4,5.7-86.3,5.8-86.4c0,0,0.1-0.1,0.1-0.2C5.8-86.6,5.8-86.5,5.8-86.4z"
					/>
				<path id="パス_1469" class="st8" d="M5.7-85.5C5.6-85.6,5.6-85.5,5.7-85.5C5.6-85.4,5.7-85.5,5.7-85.5z"/>
				<path id="パス_1470" class="st8" d="M5.6-78.2C5.6-78.2,5.6-78.1,5.6-78.2L5.6-78.2C5.6-78.2,5.6-78.2,5.6-78.2z"/>
				<path id="パス_1471" class="st8" d="M5.7-77.9c0-0.1,0-0.2,0-0.2c0,0.2,0,0.2,0,0.4L5.7-77.9L5.7-77.9z"/>
			</g>
		</g>
	</g>
</g>
</svg>
