<?xml version="1.0" encoding="utf-8"?>
<!-- Generator: Adobe Illustrator 25.4.1, SVG Export Plug-In . SVG Version: 6.00 Build 0)  -->
<svg version="1.1" id="レイヤー_1" xmlns="http://www.w3.org/2000/svg" xmlns:xlink="http://www.w3.org/1999/xlink" x="0px"
	 y="0px" viewBox="0 0 28.2 36.3" style="enable-background:new 0 0 28.2 36.3;" xml:space="preserve">
<style type="text/css">
	.st0{fill:#EEB898;stroke:#EEB898;}
</style>
<g id="グループ_1578" transform="translate(-940.136 -779.798)">
	<path id="パス_1413" class="st0" d="M947.9,786.6c0.1,0.2,0.4,0.3,0.7,0.1c0.2-0.1,0.3-0.4,0.1-0.7l-1.4-2.2
		c-0.1-0.2-0.4-0.3-0.7-0.1c-0.2,0.1-0.3,0.4-0.1,0.7L947.9,786.6z"/>
	<path id="パス_1414" class="st0" d="M953.5,785.2c0.2,0.1,0.5,0.1,0.7-0.1c0-0.1,0.1-0.2,0.1-0.3l0-4c0-0.3-0.2-0.5-0.5-0.5
		c-0.2,0-0.4,0.2-0.5,0.5l0,4C953.3,785,953.4,785.1,953.5,785.2z"/>
	<path id="パス_1415" class="st0" d="M959,787.1c0.2,0.1,0.5,0.1,0.7-0.2l1.3-2.2c0.1-0.2,0-0.5-0.2-0.6c-0.2-0.1-0.5,0-0.6,0.2
		l-1.3,2.2C958.8,786.7,958.8,787,959,787.1z"/>
	<path id="パス_1416" class="st0" d="M963.7,790.5c0.2,0.1,0.3,0,0.5-0.1l3.5-2.7c0.2-0.2,0.2-0.5,0-0.7c-0.2-0.2-0.4-0.2-0.6-0.1
		l-3.5,2.7c-0.2,0.2-0.2,0.5-0.1,0.7c0,0,0,0,0,0C963.5,790.4,963.6,790.4,963.7,790.5z"/>
	<path id="パス_1417" class="st0" d="M940.8,787.7l3.1,2.4c0.2,0.2,0.5,0.1,0.7-0.1c0.1-0.2,0.1-0.5-0.1-0.6l-3.1-2.4
		c-0.2-0.2-0.5-0.1-0.7,0.1S940.6,787.5,940.8,787.7L940.8,787.7L940.8,787.7z"/>
	<path id="パス_1418" class="st0" d="M948.3,804.9c0.1,0.1,0.2,0.3,0.3,0.4c0.4,0.5,0.8,1,1.2,1.5c0.4,0.7,0.7,1.4,0.9,2.2
		c0.1,0.3,0.3,0.4,0.6,0.4c0,0,0,0,0,0c0.3-0.1,0.4-0.3,0.4-0.6c-0.2-0.9-0.5-1.7-1-2.5c-0.4-0.6-0.8-1.2-1.3-1.7
		c-0.1-0.1-0.2-0.3-0.3-0.4c-1.2-1.2-2-2.8-2.5-4.4c-0.3-1.6-0.1-3.3,0.5-4.8c1.1-2.6,3.6-4.4,6.4-4.6c0.1,0,0.3,0,0.4,0
		c1.4,0,2.8,0.4,4,1.2c1.1,0.7,2,1.7,2.6,2.9c0.6,1.2,1,2.6,0.9,4c-0.1,1.7-0.7,3.3-1.7,4.7c-0.4,0.5-0.8,1-1.3,1.5l0,0
		c-0.1,0.1-0.3,0.3-0.4,0.4c-0.6,0.7-1.2,1.5-1.5,2.4c-0.2,0.4-0.3,0.8-0.4,1.3c-0.1,0.3,0.1,0.5,0.4,0.6c0.3,0.1,0.5-0.1,0.6-0.4
		c0,0,0,0,0,0c0.1-0.4,0.2-0.8,0.3-1.1c0.3-0.8,0.8-1.5,1.3-2.1c0.1-0.1,0.2-0.3,0.4-0.4l0,0c0.5-0.5,0.9-1.1,1.4-1.6
		c1.2-1.5,1.8-3.3,1.9-5.2c0-1.5-0.3-3.1-1-4.4c-0.7-1.3-1.7-2.4-2.9-3.3c-1.4-0.9-3-1.4-4.6-1.4c-0.2,0-0.3,0-0.5,0
		c-3.2,0.2-6.1,2.3-7.3,5.2c-0.8,1.7-1,3.6-0.6,5.4C946.1,801.8,947,803.5,948.3,804.9z"/>
	<path id="パス_1419" class="st0" d="M950.8,812.3L950.8,812.3l0.1,0c0.1,0,0.1,0,0.2,0l0,0c2,0,3.9,0,5.9,0c0.2,0,0.3,0,0.4-0.1
		s0.1-0.2,0.1-0.3c0-0.3-0.1-0.3-0.4-0.3l0,0l-5.7,0c-0.1,0-0.2,0-0.3,0c-0.1,0-0.2,0.1-0.2,0.2c0,0,0,0,0,0c0,0,0,0.1,0,0.1
		c0,0,0,0.1,0,0.1C950.7,812.1,950.7,812.2,950.8,812.3C950.8,812.2,950.8,812.2,950.8,812.3L950.8,812.3z"/>
	<path id="パス_1420" class="st0" d="M957.2,810.2c-0.1,0-0.1,0-0.2,0l-5,0h-0.6c-0.1,0-0.3,0-0.4,0c-0.1,0-0.3,0.1-0.3,0.2
		c0,0,0,0.1,0,0.1c0,0.1,0,0.3,0.1,0.4c0,0,0,0,0,0l0,0l0,0l0.1,0c0.1,0,0.1,0,0.2,0l0,0l4,0h1.2c0.2,0,0.5,0,0.7,0
		c0.1,0,0.2,0,0.3-0.1c0.1-0.1,0.1-0.2,0.1-0.3v0c0,0,0-0.1,0-0.1C957.4,810.3,957.3,810.2,957.2,810.2
		C957.2,810.2,957.2,810.2,957.2,810.2z"/>
	<path id="パス_1421" class="st0" d="M954,815.6L954,815.6c1.4,0,2.7-0.7,3.3-1.9c0.1-0.2,0.1-0.3,0-0.5c-0.1-0.1-0.3-0.2-0.4-0.2
		l0,0l-5.6,0c-0.2,0-0.3,0.1-0.4,0.2c-0.1,0.2-0.1,0.3,0,0.5C951.4,814.9,952.7,815.6,954,815.6z M956.5,813.6
		c-1,1.4-2.9,1.7-4.3,0.7c-0.3-0.2-0.5-0.4-0.7-0.7L956.5,813.6z"/>
	<path id="パス_1422" class="st0" d="M958.2,794.8c0.1,0.2,0.4,0.3,0.5,0.2c0.2-0.1,0.3-0.3,0.2-0.5c-0.6-1.1-1.7-2-2.9-2.2
		c-0.2,0-0.4,0.1-0.5,0.3c0,0.2,0.1,0.4,0.3,0.5C956.9,793.2,957.7,793.9,958.2,794.8z"/>
</g>
</svg>
