<?xml version="1.0" encoding="utf-8"?>
<!-- Generator: Adobe Illustrator 26.0.1, SVG Export Plug-In . SVG Version: 6.00 Build 0)  -->
<svg version="1.1" baseProfile="tiny" id="icon_alert_error_24px"
	 xmlns="http://www.w3.org/2000/svg" xmlns:xlink="http://www.w3.org/1999/xlink" x="0px" y="0px" viewBox="0 0 58 58"
	 overflow="visible" xml:space="preserve">
<g id="_Color" transform="translate(28.472 14.885)">
	<path fill="#FB7122" d="M1,24H-1v-1.8H1V24L1,24z M1,18.4H-1V4.2H1V18.4L1,18.4z"/>
	<path fill="#FB7122" d="M1,24H-1v-1.8H1V24z M1,18.4H-1V4.2H1V18.4z"/>
</g>
<path fill="#FB7122" d="M29,2c14.9,0,27,12.1,27,27S43.9,56,29,56S2,43.9,2,29S14.1,2,29,2 M29,0C13,0,0,13,0,29s13,29,29,29
	s29-13,29-29S45,0,29,0L29,0z"/>
</svg>
