<svg xmlns="http://www.w3.org/2000/svg" width="59.59" height="45.208" viewBox="0 0 59.59 45.208">
  <g id="グループ_2703" data-name="グループ 2703" transform="translate(-234.127 -543.424)">
    <g id="グループ_1227" data-name="グループ 1227" transform="translate(-107.487 -296.351)">
      <rect id="長方形_1486" data-name="長方形 1486" width="59.59" height="37.578" rx="2" transform="translate(341.614 839.775)" fill="#e2e2e2"/>
      <rect id="長方形_1487" data-name="長方形 1487" width="59.59" height="5.88" transform="translate(341.614 843.313)"/>
      <g id="グループ_1225" data-name="グループ 1225" transform="translate(345.89 850.939)">
        <path id="パス_1258" data-name="パス 1258" d="M362.848,896.058a1.18,1.18,0,0,0-.059.334c0,.215.215.37.689.37a4.051,4.051,0,0,0,1.066-.121l0,.34a4.538,4.538,0,0,1-1.06.109c-.664,0-1.022-.221-1.022-.626a1.878,1.878,0,0,1,.062-.436Zm-.187-1.274a6.94,6.94,0,0,0,.825.041c.3,0,.633-.022.86-.044v.324c-.212.016-.57.037-.857.037-.315,0-.579-.016-.829-.034Zm2.031.087-.206.09a3.174,3.174,0,0,0-.249-.433l.2-.084A4.519,4.519,0,0,1,364.693,894.871Zm.361-.134-.2.09a2.945,2.945,0,0,0-.259-.43l.2-.084A4.877,4.877,0,0,1,365.054,894.737Z" transform="translate(-362.465 -894.294)"/>
        <path id="パス_1259" data-name="パス 1259" d="M377.839,896.566c-.119.062-.237.122-.358.174h1.053v1.05h-.281v-.081H376.96v.09h-.268v-.763c-.19.062-.38.115-.567.159a1.539,1.539,0,0,0-.143-.246,6.778,6.778,0,0,0,1.274-.383h-1.2v-.234h1.141v-.2h-.82v-.228h.82v-.184h-.966v-.664h2.421v.664h-1.175v.184h.67v.168a2.58,2.58,0,0,0,.305-.265l.234.143a3.087,3.087,0,0,1-.458.38h.579v.234Zm-.907-1.3h-.43v.252h.43Zm1.321,1.689H376.96v.168h1.293Zm0,.545v-.187H376.96v.187Zm-1.056-1.982h.446v-.252H377.2Zm.545.816a3.324,3.324,0,0,0,.321-.2h-.589v.2Zm.165-.816h.455v-.252h-.455Z" transform="translate(-373.21 -894.887)"/>
        <path id="パス_1260" data-name="パス 1260" d="M393.816,897.327h-.3V897.2h-1.178v.122h-.29v-.935a3.9,3.9,0,0,1-.729.327,1.179,1.179,0,0,0-.165-.259,3.486,3.486,0,0,0,1.119-.57,3.93,3.93,0,0,0-.523-.471,3.861,3.861,0,0,1-.383.262.882.882,0,0,0-.206-.224,2.586,2.586,0,0,0,1.041-1l.327.062c-.05.087-.106.172-.165.256h.794l.053-.016.2.106a2.9,2.9,0,0,1-.788,1.115h1.2Zm-1.661-2.3c-.059.065-.122.134-.19.2a4.328,4.328,0,0,1,.542.461,2.446,2.446,0,0,0,.5-.657Zm1.362,1.91v-.7h-1.178v.7Z" transform="translate(-385.272 -894.404)"/>
        <path id="パス_1261" data-name="パス 1261" d="M410.717,895.711a2.076,2.076,0,0,1,.617-1.49l.237.112a1.941,1.941,0,0,0,0,2.755l-.237.112A2.076,2.076,0,0,1,410.717,895.711Z" transform="translate(-400.823 -894.222)"/>
        <path id="パス_1262" data-name="パス 1262" d="M416.933,897.715h-.8l-.2.654h-.368l.76-2.293h.417l.76,2.293h-.383Zm-.087-.283-.09-.308c-.078-.249-.146-.5-.218-.764h-.013c-.065.262-.137.514-.212.764l-.094.308Z" transform="translate(-404.682 -895.696)"/>
        <path id="パス_1263" data-name="パス 1263" d="M426.441,897.385v-1.309h.361v1.334c0,.517.206.685.492.685s.5-.168.5-.685v-1.334h.349v1.309c0,.748-.343,1.025-.851,1.025S426.441,898.133,426.441,897.385Z" transform="translate(-413.323 -895.696)"/>
        <path id="パス_1264" data-name="パス 1264" d="M437.316,896.378h-.673v-.3h1.711v.3h-.676v1.991h-.361Z" transform="translate(-421.433 -895.696)"/>
        <path id="パス_1265" data-name="パス 1265" d="M446.919,896.076h.361v.935h.981v-.935h.362v2.293h-.362v-1.044h-.981v1.044h-.361Z" transform="translate(-429.602 -895.696)"/>
        <path id="パス_1266" data-name="パス 1266" d="M457.561,897.045c0-.739.408-1.181,1-1.181s1,.442,1,1.181-.411,1.2-1,1.2S457.561,897.783,457.561,897.045Zm1.627,0c0-.539-.249-.866-.63-.866s-.626.327-.626.866.246.882.626.882S459.188,897.584,459.188,897.045Z" transform="translate(-438.062 -895.527)"/>
        <path id="パス_1267" data-name="パス 1267" d="M470.885,898.369l-.52-.926h-.371v.926h-.362v-2.293h.751c.474,0,.829.168.829.664a.639.639,0,0,1-.48.658l.561.972Zm-.891-1.215h.346c.333,0,.514-.137.514-.414s-.181-.374-.514-.374h-.346Z" transform="translate(-447.658 -895.696)"/>
        <path id="パス_1268" data-name="パス 1268" d="M479.591,896.076h.362v2.293h-.362Z" transform="translate(-455.574 -895.696)"/>
        <path id="パス_1269" data-name="パス 1269" d="M483.529,898.151l1.15-1.773h-1.044v-.3h1.489v.215l-1.147,1.773h1.159v.305h-1.608Z" transform="translate(-458.705 -895.696)"/>
        <path id="パス_1270" data-name="パス 1270" d="M493.517,896.076h1.355v.3h-.994v.639h.841v.305h-.841v.742h1.028v.305h-1.39Z" transform="translate(-466.645 -895.696)"/>
        <path id="パス_1271" data-name="パス 1271" d="M502.639,896.076h.6a1.01,1.01,0,0,1,1.106,1.137,1.02,1.02,0,0,1-1.087,1.156h-.614Zm.57,2c.492,0,.757-.29.757-.86s-.265-.845-.757-.845H503v1.7Z" transform="translate(-473.896 -895.696)"/>
        <path id="パス_1272" data-name="パス 1272" d="M515.9,897.9l.212-.249a.889.889,0,0,0,.611.271c.277,0,.433-.131.433-.324,0-.209-.156-.274-.368-.368l-.318-.137a.659.659,0,0,1-.467-.6.682.682,0,0,1,.754-.632.982.982,0,0,1,.695.29l-.19.23a.73.73,0,0,0-.5-.206c-.234,0-.386.112-.386.3s.184.271.371.346l.315.134a.64.64,0,0,1,.467.62.714.714,0,0,1-.807.667A1.144,1.144,0,0,1,515.9,897.9Z" transform="translate(-484.435 -895.527)"/>
        <path id="パス_1273" data-name="パス 1273" d="M525.93,896.076h.361v2.293h-.361Z" transform="translate(-492.411 -895.696)"/>
        <path id="パス_1274" data-name="パス 1274" d="M530.02,897.06a1.077,1.077,0,0,1,1.069-1.2.915.915,0,0,1,.683.29l-.2.23a.622.622,0,0,0-.474-.206c-.427,0-.71.33-.71.87s.252.878.726.878a.569.569,0,0,0,.361-.112v-.539h-.455v-.3h.782v.994a1.031,1.031,0,0,1-.726.268A1.052,1.052,0,0,1,530.02,897.06Z" transform="translate(-495.663 -895.527)"/>
        <path id="パス_1275" data-name="パス 1275" d="M541.285,896.076h.371l.76,1.346.24.486h.016c-.019-.237-.047-.514-.047-.763v-1.069h.343v2.293H542.6l-.76-1.352-.24-.48h-.015c.019.237.047.5.047.751v1.081h-.343Z" transform="translate(-504.618 -895.696)"/>
        <path id="パス_1276" data-name="パス 1276" d="M552.331,897.715h-.8l-.2.654h-.368l.76-2.293h.418l.76,2.293h-.383Zm-.087-.283-.09-.308c-.078-.249-.146-.5-.218-.764h-.012c-.066.262-.137.514-.212.764l-.093.308Z" transform="translate(-512.317 -895.696)"/>
        <path id="パス_1277" data-name="パス 1277" d="M561.57,896.378H560.9v-.3h1.711v.3h-.676v1.991h-.361Z" transform="translate(-520.208 -895.696)"/>
        <path id="パス_1278" data-name="パス 1278" d="M571.113,897.385v-1.309h.361v1.334c0,.517.205.685.492.685s.5-.168.5-.685v-1.334h.349v1.309c0,.748-.343,1.025-.85,1.025S571.113,898.133,571.113,897.385Z" transform="translate(-528.33 -895.696)"/>
        <path id="パス_1279" data-name="パス 1279" d="M583.57,898.369l-.52-.926h-.371v.926h-.361v-2.293h.751c.474,0,.829.168.829.664a.639.639,0,0,1-.48.658l.561.972Zm-.891-1.215h.346c.333,0,.514-.137.514-.414s-.181-.374-.514-.374h-.346Z" transform="translate(-537.237 -895.696)"/>
        <path id="パス_1280" data-name="パス 1280" d="M592.276,896.076h1.355v.3h-.994v.639h.841v.305h-.841v.742h1.028v.305h-1.39Z" transform="translate(-545.153 -895.696)"/>
        <path id="パス_1281" data-name="パス 1281" d="M601.461,895.711a2.077,2.077,0,0,1-.617,1.489l-.237-.112a1.941,1.941,0,0,0,0-2.755l.237-.112A2.077,2.077,0,0,1,601.461,895.711Z" transform="translate(-551.776 -894.222)"/>
      </g>
      <rect id="長方形_1488" data-name="長方形 1488" width="51.536" height="8.813" transform="translate(345.292 855.394)" fill="#fff"/>
      <g id="グループ_1226" data-name="グループ 1226" transform="translate(378.511 856.846)">
        <path id="パス_1282" data-name="パス 1282" d="M521.556,925.714h.609v-1.936h-.5V923.5a1.707,1.707,0,0,0,.605-.212h.329v2.424h.545v.36h-1.589Z" transform="translate(-521.556 -923.237)"/>
        <path id="パス_1283" data-name="パス 1283" d="M532.135,925.615c.821-.726,1.244-1.267,1.244-1.725a.454.454,0,0,0-.473-.51.756.756,0,0,0-.549.31l-.246-.242a1.093,1.093,0,0,1,.847-.416.787.787,0,0,1,.84.836,2.629,2.629,0,0,1-1.018,1.657c.144-.015.318-.026.454-.026h.7v.371h-1.8Z" transform="translate(-529.947 -923.032)"/>
        <path id="パス_1284" data-name="パス 1284" d="M543.369,925.536l.212-.28a.9.9,0,0,0,.658.306.468.468,0,0,0,.53-.462c0-.31-.2-.51-.825-.51v-.322c.548,0,.73-.208.73-.488a.39.39,0,0,0-.428-.4.815.815,0,0,0-.556.265l-.227-.272a1.174,1.174,0,0,1,.8-.337c.5,0,.851.257.851.719a.673.673,0,0,1-.48.654v.019a.705.705,0,0,1,.575.7.835.835,0,0,1-.93.8A1.156,1.156,0,0,1,543.369,925.536Z" transform="translate(-538.896 -923.032)"/>
        <path id="パス_1285" data-name="パス 1285" d="M556.629,925.325h-.355v.749h-.409v-.749h-1.2v-.291l1.108-1.744h.5v1.7h.355Zm-.764-.337v-.73c0-.151.015-.386.023-.537h-.015c-.068.14-.144.284-.223.428l-.549.84Z" transform="translate(-547.874 -923.237)"/>
        <path id="パス_1286" data-name="パス 1286" d="M571.9,924.637l-.749-1.347h.488l.337.651c.068.129.129.253.212.42h.019c.072-.167.125-.291.189-.42l.329-.651h.461l-.749,1.369.8,1.415h-.488l-.367-.692c-.072-.14-.144-.284-.231-.454h-.015c-.079.17-.148.314-.215.454l-.356.692H571.1Z" transform="translate(-560.945 -923.237)"/>
        <path id="パス_1287" data-name="パス 1287" d="M583.823,924.637l-.749-1.347h.488l.336.651c.068.129.129.253.212.42h.019c.072-.167.125-.291.189-.42l.329-.651h.461l-.749,1.369.8,1.415h-.488l-.367-.692c-.072-.14-.144-.284-.231-.454h-.015c-.08.17-.148.314-.216.454l-.356.692h-.465Z" transform="translate(-570.421 -923.237)"/>
        <path id="パス_1288" data-name="パス 1288" d="M595.744,924.637,595,923.29h.488l.337.651c.068.129.129.253.212.42h.019c.072-.167.125-.291.189-.42l.329-.651h.461l-.749,1.369.8,1.415H596.6l-.367-.692c-.072-.14-.144-.284-.231-.454h-.015c-.08.17-.148.314-.216.454l-.355.692h-.465Z" transform="translate(-579.897 -923.237)"/>
      </g>
      <ellipse id="楕円形_391" data-name="楕円形 391" cx="4.239" cy="1.993" rx="4.239" ry="1.993" transform="translate(387.665 856.058)" fill="none" stroke="red" stroke-miterlimit="10" stroke-width="1"/>
    </g>
    <path id="パス_1289" data-name="パス 1289" d="M8955.109,569.65v24.716" transform="translate(-8670.82 -5.734)" fill="none" stroke="#fc0000" stroke-width="1"/>
  </g>
</svg>
