<svg xmlns="http://www.w3.org/2000/svg" width="940.492" height="641.03" viewBox="0 0 940.492 641.03">
  <g id="グループ_3094" data-name="グループ 3094" transform="matrix(0.966, -0.259, 0.259, 0.966, -116.425, 133.99)">
    <g id="グループ_3092" data-name="グループ 3092" transform="translate(89.702 115.06)">
      <path id="パス_2513" data-name="パス 2513" d="M680.538,548.962l32.014-32.015,32.015,32.015h202.54V115.06H744.567l-32.015,32.015L680.538,115.06H89.7v433.9Z" transform="translate(-89.702 -115.06)" fill="#e6e6e6"/>
      <g id="グループ_3091" data-name="グループ 3091" transform="translate(622.78 64.037)">
        <g id="グループ_3090" data-name="グループ 3090">
          <line id="線_310" data-name="線 310" fill="none" stroke="#faf8f4" stroke-linecap="round" stroke-linejoin="round" stroke-width="2.332"/>
          <line id="線_311" data-name="線 311" y2="263.52" transform="translate(0 31.002)" fill="none" stroke="#faf8f4" stroke-linecap="round" stroke-linejoin="round" stroke-width="2.332" stroke-dasharray="0 4.66"/>
          <line id="線_312" data-name="線 312" transform="translate(0 310.023)" fill="none" stroke="#faf8f4" stroke-linecap="round" stroke-linejoin="round" stroke-width="2.332"/>
        </g>
      </g>
    </g>
    <g id="グループ_3093" data-name="グループ 3093" transform="translate(161.161 297.667)">
      <path id="パス_2515" data-name="パス 2515" d="M149.742,165.9a18.173,18.173,0,0,0-14.7-7.092c-10.252,0-17.171,7.857-17.171,17.857,0,10.166,7.006,17.511,17.424,17.511a19.279,19.279,0,0,0,14.444-6.833v20.079c-5.555,1.7-9.567,2.987-14.783,2.987a35.891,35.891,0,0,1-24.177-9.481c-7.092-6.407-10.339-14.783-10.339-24.35A33.693,33.693,0,0,1,109.93,153a34.9,34.9,0,0,1,24.516-10.425,39.332,39.332,0,0,1,15.3,3.247Z" transform="translate(-100.443 -142.145)" fill="#faf8f4"/>
      <path id="パス_2516" data-name="パス 2516" d="M182.734,175.652c0,20.851-14.949,35.54-35.62,35.54s-35.627-14.69-35.627-35.54c0-19.473,17.085-33.145,35.627-33.145S182.734,156.179,182.734,175.652Zm-53.816.086c0,11.111,8.2,19.227,18.2,19.227s18.2-8.117,18.2-19.227c0-8.882-8.2-17-18.2-17S128.918,166.857,128.918,175.739Z" transform="translate(-38.011 -142.507)" fill="#faf8f4"/>
      <path id="パス_2517" data-name="パス 2517" d="M182.1,142.828v36.226c0,8.283-.346,16.486-6.753,22.72-5.382,5.3-13.838,7.179-21.356,7.179s-15.974-1.883-21.356-7.179c-6.407-6.234-6.753-14.437-6.753-22.72V142.828h16.746v33.917c0,8.376.6,17.511,11.363,17.511s11.363-9.135,11.363-17.511V142.828Z" transform="translate(43.364 -140.692)" fill="#faf8f4"/>
      <path id="パス_2518" data-name="パス 2518" d="M138.493,142.828H164.12c13.838,0,23.405,6.407,23.405,21.19,0,15.2-8.2,21.869-22.807,21.869h-9.481v21.356H138.493Zm16.746,29.559h2.814c6.068,0,12.049,0,12.049-7.857,0-8.117-5.555-8.2-12.049-8.2h-2.814Z" transform="translate(114.655 -140.692)" fill="#faf8f4"/>
      <path id="パス_2519" data-name="パス 2519" d="M220.315,175.652c0,20.851-14.956,35.54-35.627,35.54s-35.627-14.69-35.627-35.54c0-19.473,17.085-33.145,35.627-33.145S220.315,156.179,220.315,175.652Zm-53.823.086c0,11.111,8.2,19.227,18.2,19.227s18.2-8.117,18.2-19.227c0-8.882-8.2-17-18.2-17S166.492,166.857,166.492,175.739Z" transform="translate(174.396 -142.507)" fill="#faf8f4"/>
      <path id="パス_2520" data-name="パス 2520" d="M163.508,142.828h16.746l30.67,39.386h.167V142.828h16.746v64.414H211.091l-30.664-39.466h-.173v39.466H163.508Z" transform="translate(256.065 -140.692)" fill="#faf8f4"/>
    </g>
  </g>
</svg>
