<svg xmlns="http://www.w3.org/2000/svg" width="279.48" height="102.628" viewBox="0 0 279.48 102.628">
  <g id="グループ_96" data-name="グループ 96" transform="translate(-50.568 -329.103)">
    <g id="グループ_95" data-name="グループ 95">
      <g id="グループ_93" data-name="グループ 93">
        <text id="SENPAI" transform="translate(134.961 426.731)" fill="#fb7122" font-size="21.739" font-family="SegoeUI, Segoe UI" letter-spacing="0.38em"><tspan x="0" y="0">SENPAI</tspan></text>
      </g>
      <g id="グループ_94" data-name="グループ 94">
        <path id="パス_1228" data-name="パス 1228" d="M31.772-.321V-48.3H23.749v-1.524h8.023v-8.184H33.3v8.184H56.885v17.41H48.059v-1.524h7.3V-48.3H33.3v38.271h7.462v8.184H56.724V-.321Zm7.783-8.5H33.3v6.9h6.258ZM128.933-.562v-8.1h7.221V-54.237h1.524V.963H110.961V-.562Zm7.221-6.9h-6.1v6.9h6.1ZM108.875-52.071h17.651L108.875-29.606Zm1.524,1.524v3.29h2.648v-3.29Zm0,4.012v12.516l13-16.528h-9.628v4.012ZM179,0l10.831-7.863V-34.5h-3.61v-1.123h3.61v-1.685h-3.61v-1.123h3.61V-54.879h1.524v16.448H194v1.123h-2.648v1.685H194V-34.5h-2.648V-7.06L179.88,1.2ZM217.83-44.208a7.758,7.758,0,0,1-5.135-2.527,7.547,7.547,0,0,1-2.006-5.255,7.561,7.561,0,0,1,2.246-5.5,7.362,7.362,0,0,1,5.456-2.287,7.326,7.326,0,0,1,5.5,2.287,7.935,7.935,0,0,1,2.287,5.5,7.808,7.808,0,0,1-2.006,5.135,7.654,7.654,0,0,1-4.814,2.567v5.857h3.29v1.123h-3.29v1.685h3.29V-34.5h-3.29V-8.585L230.186,0l-.963,1.2L217.83-7.863V-34.5h-2.969v-1.123h2.969v-1.685h-2.969v-1.123h2.969Zm.562-14.041a5.918,5.918,0,0,0-4.413,1.805,6.122,6.122,0,0,0-1.765,4.453,5.955,5.955,0,0,0,1.805,4.373,6.248,6.248,0,0,0,4.373,1.885,6.248,6.248,0,0,0,4.373-1.885,6.248,6.248,0,0,0,1.885-4.373C224.6-53.7,222.8-56.4,222.8-56.4S220.157-58.248,218.392-58.248Zm68.6,61.378V-13.238H267.815v-1.524h23.267v-7.783H298.7v-31.13h1.524v40.437H288.515V3.129Zm5.215-24.551v6.659h6.338v-6.659Z" transform="translate(28.319 390.376)" fill="#fb7122" stroke="#fb7123" stroke-width="3"/>
      </g>
    </g>
  </g>
</svg>
