<svg xmlns="http://www.w3.org/2000/svg" width="195.129" height="46.105" viewBox="0 0 195.129 46.105">
  <g id="グループ_334" data-name="グループ 334" transform="translate(-530.592 -160.982)">
    <g id="グループ_333" data-name="グループ 333">
      <g id="グループ_332" data-name="グループ 332">
        <path id="パス_1229" data-name="パス 1229" d="M22.169-.224V-33.7h-5.6v-1.064h5.6v-5.71h1.064v5.71H39.691v12.148H33.533V-23.68h5.094V-33.7h-15.4V-7h5.206v5.71h11.14V-.224ZM27.6-6.158H23.233v4.814H27.6ZM89.963-.392V-6.046H95v-31.8h1.064V.672H77.423V-.392ZM95-5.206H90.747V-.392H95ZM75.967-36.332H88.284L75.967-20.657Zm1.064,1.064v2.3h1.847v-2.3Zm0,2.8v8.733L86.1-35.269H79.382v2.8ZM124.9,0l7.558-5.486V-24.072h-2.519v-.784h2.519v-1.176h-2.519v-.784h2.519V-38.292h1.064v11.476h1.847v.784h-1.847v1.176h1.847v.784h-1.847V-4.926L125.511.84Zm27.1-30.846a5.413,5.413,0,0,1-3.583-1.763,5.266,5.266,0,0,1-1.4-3.667,5.276,5.276,0,0,1,1.567-3.835,5.137,5.137,0,0,1,3.807-1.6,5.111,5.111,0,0,1,3.835,1.6,5.536,5.536,0,0,1,1.6,3.835,5.448,5.448,0,0,1-1.4,3.583,5.34,5.34,0,0,1-3.359,1.791v4.087h2.3v.784h-2.3v1.176h2.3v.784h-2.3V-5.99L160.612,0l-.672.84-7.949-6.326V-24.072H149.92v-.784h2.071v-1.176H149.92v-.784h2.071Zm.392-9.8a4.129,4.129,0,0,0-3.079,1.26,4.272,4.272,0,0,0-1.232,3.107,4.155,4.155,0,0,0,1.26,3.051,4.359,4.359,0,0,0,3.051,1.316,4.359,4.359,0,0,0,3.051-1.316,4.359,4.359,0,0,0,1.316-3.051,4.514,4.514,0,0,0-1.288-3.079A4.085,4.085,0,0,0,152.383-40.643ZM200.247,2.183V-9.237h-13.38V-10.3H203.1v-5.43h5.318V-37.452h1.064V-9.237h-8.173V2.183Zm3.639-17.13V-10.3h4.423v-4.646Z" transform="translate(515.129 203.796)" fill="#fb7122" stroke="#fb7122" stroke-width="2.215"/>
      </g>
    </g>
  </g>
</svg>
