<svg xmlns="http://www.w3.org/2000/svg" width="256" height="110.635" viewBox="0 0 256 110.635">
  <g id="グループ_3808" data-name="グループ 3808" transform="translate(-62 -313.365)">
    <text id="あなたの習慣や経験を_仕事にしてみませんか_" data-name="あなたの習慣や経験を
＼仕事にしてみませんか？／" transform="translate(190 391)" fill="#414042" font-size="18" font-family="NotoSansCJKjp-Bold, Noto Sans CJK JP" font-weight="700" letter-spacing="0.1em"><tspan x="-98.1" y="0">あなたの習慣や経験を</tspan><tspan x="-127.26" y="27">＼仕事にしてみませんか？／</tspan></text>
    <text id="ランニング_筋トレ_カラオケなど" data-name="ランニング・筋トレ・カラオケなど" transform="translate(85 361)" fill="#414042" font-size="12" font-family="NotoSansCJKjp-Medium, Noto Sans CJK JP" font-weight="500" letter-spacing="0.1em"><tspan x="0" y="0">ランニング・筋トレ・カラオケなど</tspan></text>
    <g id="グループ_2641" data-name="グループ 2641" transform="translate(8.965)">
      <g id="グループ_1237" data-name="グループ 1237" transform="translate(108.035 316.905)">
        <g id="グループ_1239" data-name="グループ 1239" transform="translate(0 0)">
          <path id="パス_1305" data-name="パス 1305" d="M1594.251-684.809a1.953,1.953,0,0,1-2.988,1.012,1.019,1.019,0,0,1-.183.4.926.926,0,0,1-1.286.236.9.9,0,0,1-.254-1.1,11.014,11.014,0,0,1-1.241-.524c-.017.027-.035.054-.055.08a.926.926,0,0,1-1.286.236.918.918,0,0,1-.178-1.237,9.529,9.529,0,0,1-.986-.827.894.894,0,0,1-1.047.005.925.925,0,0,1-.135-1.3c.011-.015.023-.029.035-.043a9.343,9.343,0,0,1-.824-1.419c-1.1-2.339-2.167-1.009-3.824-1.711-1.84-.779-3.965-2.423-3.347-3.836.971-1.679,1.454-2.111,1.767-2.157a1.05,1.05,0,0,1,.756.012m11.018-2.359c-.9-1.007-1.226-.391-1.786.916-1.334,3.109-4.738.68-4.855-2.713-.026-.743-.223-1.637-1.223-1.105-.419.223-4.125,4.557-3.683,4.891l.085.064c2.078,1.567,4.281,1.268,5.219,4.781a13.211,13.211,0,0,0,4.421,6.017,11.157,11.157,0,0,0,4.737,1.573c2.687.118,2.9-3.539,2.418-4.218-.544-.763-1.709-.594-3.265-3.342a12.932,12.932,0,0,1-1.51-4.5,15.161,15.161,0,0,0-.557-2.368Zm.544,2.99c-.226.3-.363.593-1.637.592m2,1.177c-.227.3-.363.593-1.638.592m2.222,1.11c-.227.3-.363.593-1.638.592m2.657.975c-.227.3-.363.593-1.638.592m3.055,1.137a2.668,2.668,0,0,1-3.089.848c-5.309-2.414-4.147-8.9-8.334-6.161m6.37-1.155a.4.4,0,0,1,.079.563.4.4,0,0,1-.563.079.4.4,0,0,1-.078-.563.4.4,0,0,1,.563-.079Zm.636,1.742a.4.4,0,0,1,.079.563.4.4,0,0,1-.563.079.4.4,0,0,1-.079-.563.4.4,0,0,1,.563-.079Zm.584,1.7a.4.4,0,0,1,.079.563.4.4,0,0,1-.563.079.4.4,0,0,1-.079-.563.4.4,0,0,1,.563-.079Zm1.019,1.567a.4.4,0,0,1,.08.563.4.4,0,0,1-.563.079.4.4,0,0,1-.079-.563.4.4,0,0,1,.563-.079Zm-3.374,8.044h-11.4m8.193-1.445h-7m-.395-1.946h-.932" transform="translate(-1576.409 702.399)" fill="none" stroke="#84cd93" stroke-linecap="round" stroke-linejoin="round" stroke-width="1"/>
        </g>
      </g>
      <g id="グループ_2561" data-name="グループ 2561" transform="translate(-2667.849 872.175)">
        <path id="パス_2171" data-name="パス 2171" d="M2847.4-417.046l1.679-1.679,9.48,9.48-1.679,1.679-9.48-9.48Z" transform="translate(-5.396 -128.849)" fill="none" stroke="#ce7cab" stroke-linecap="round" stroke-linejoin="round" stroke-width="1"/>
        <path id="パス_2172" data-name="パス 2172" d="M2842.784-359.011l1.679-1.679,6.47,6.47-1.679,1.68-6.47-6.47Z" transform="translate(-1.038 -183.613)" fill="none" stroke="#ce7cab" stroke-linecap="round" stroke-linejoin="round" stroke-width="1"/>
        <path id="パス_2173" data-name="パス 2173" d="M2841.684-300.513l1.679-1.679,3.235,3.235-1.679,1.68-3.235-3.235Z" transform="translate(0 -238.814)" fill="none" stroke="#ce7cab" stroke-linecap="round" stroke-linejoin="round" stroke-width="1"/>
        <path id="パス_2174" data-name="パス 2174" d="M2947.993-442.312l-1.679-1.679,5.648-5.648,1.679,1.679-5.648,5.648Z" transform="translate(-98.733 -99.677)" fill="none" stroke="#ce7cab" stroke-linecap="round" stroke-linejoin="round" stroke-width="1"/>
        <path id="パス_2175" data-name="パス 2175" d="M2979.908-549.552l-1.68,1.679,9.48,9.481,1.679-1.679-9.48-9.481Z" transform="translate(-128.848 -5.396)" fill="none" stroke="#ce7cab" stroke-linecap="round" stroke-linejoin="round" stroke-width="1"/>
        <path id="パス_2176" data-name="パス 2176" d="M3037.943-554.17l-1.68,1.679,6.47,6.47,1.679-1.68-6.47-6.47Z" transform="translate(-183.613 -1.038)" fill="none" stroke="#ce7cab" stroke-linecap="round" stroke-linejoin="round" stroke-width="1"/>
        <path id="パス_2177" data-name="パス 2177" d="M3096.441-555.27l-1.679,1.679,3.235,3.235,1.68-1.68-3.235-3.235Z" transform="translate(-238.814 0)" fill="none" stroke="#ce7cab" stroke-linecap="round" stroke-linejoin="round" stroke-width="1"/>
      </g>
      <g id="グループ_2562" data-name="グループ 2562" transform="translate(414.597 -867.747)">
        <path id="パス_2178" data-name="パス 2178" d="M-162.544,1316.967v1.51a6.3,6.3,0,0,1-6.28,6.281h0a6.3,6.3,0,0,1-6.281-6.281v-1.51" transform="translate(0 -125.91)" fill="none" stroke="#6ca7d0" stroke-linecap="round" stroke-linejoin="round" stroke-width="1"/>
        <line id="線_300" data-name="線 300" y2="4.486" transform="translate(-168.824 1198.847)" fill="none" stroke="#6ca7d0" stroke-linecap="round" stroke-linejoin="round" stroke-width="1"/>
        <line id="線_301" data-name="線 301" x2="10.28" transform="translate(-173.964 1204.012)" fill="none" stroke="#6ca7d0" stroke-linecap="round" stroke-linejoin="round" stroke-width="1"/>
        <path id="パス_2179" data-name="パス 2179" d="M-138.615,1181.612h0a4.026,4.026,0,0,1,4.014,4.014v6.584a4.027,4.027,0,0,1-4.014,4.014h0a4.026,4.026,0,0,1-4.014-4.014v-6.584a4.026,4.026,0,0,1,4.014-4.014Z" transform="translate(-30.21 0)" fill="none" stroke="#6ca7d0" stroke-linecap="round" stroke-linejoin="round" stroke-width="1"/>
        <line id="線_302" data-name="線 302" x2="1.804" transform="translate(-172.649 1185.505)" fill="none" stroke="#6ca7d0" stroke-linecap="round" stroke-linejoin="round" stroke-width="1"/>
        <line id="線_303" data-name="線 303" x2="1.804" transform="translate(-172.649 1187.78)" fill="none" stroke="#6ca7d0" stroke-linecap="round" stroke-linejoin="round" stroke-width="1"/>
        <line id="線_304" data-name="線 304" x2="1.804" transform="translate(-172.649 1190.056)" fill="none" stroke="#6ca7d0" stroke-linecap="round" stroke-linejoin="round" stroke-width="1"/>
        <line id="線_305" data-name="線 305" x2="1.804" transform="translate(-172.649 1192.332)" fill="none" stroke="#6ca7d0" stroke-linecap="round" stroke-linejoin="round" stroke-width="1"/>
        <line id="線_306" data-name="線 306" x2="1.804" transform="translate(-166.804 1185.505)" fill="none" stroke="#6ca7d0" stroke-linecap="round" stroke-linejoin="round" stroke-width="1"/>
        <line id="線_307" data-name="線 307" x2="1.804" transform="translate(-166.804 1187.78)" fill="none" stroke="#6ca7d0" stroke-linecap="round" stroke-linejoin="round" stroke-width="1"/>
        <line id="線_308" data-name="線 308" x2="1.804" transform="translate(-166.804 1190.056)" fill="none" stroke="#6ca7d0" stroke-linecap="round" stroke-linejoin="round" stroke-width="1"/>
        <line id="線_309" data-name="線 309" x2="1.804" transform="translate(-166.804 1192.332)" fill="none" stroke="#6ca7d0" stroke-linecap="round" stroke-linejoin="round" stroke-width="1"/>
      </g>
    </g>
  </g>
</svg>
