<svg xmlns="http://www.w3.org/2000/svg" width="53.68" height="34.501" viewBox="0 0 53.68 34.501">
  <g id="グループ_1573" data-name="グループ 1573" transform="translate(-263.795 -399.192)">
    <path id="パス_1394" data-name="パス 1394" d="M267.239,428.213c.637,2.4,0,5.084.551,7.4.161.68.991,1.219.491,2a3.358,3.358,0,0,1-2-.243c-.784-2.508-.246-4.96-.552-7.4-.261-2.082-.767-4.09-1.015-6.336-.19-.527-.707-.31-.828-.994.847-1-.4-2.853-.021-3.8.728-.462.9.35,1.518.139C272.6,415.6,272.4,427.555,267.239,428.213Zm-.138-1.849c1.562-1.619,2.59-3.956,1.087-6.574C265.047,420.923,266.881,424.137,267.1,426.363Z" transform="translate(0 -3.972)" fill="#5bbeea" fill-rule="evenodd"/>
    <path id="パス_1395" data-name="パス 1395" d="M287.471,412.04a2.589,2.589,0,0,1-3.644-.331C284.443,410.5,286.862,410.879,287.471,412.04Z" transform="translate(-4.146 -2.438)" fill="#5bbeea" fill-rule="evenodd"/>
    <path id="パス_1396" data-name="パス 1396" d="M304.678,407.086c.177.394.3.764.094.988a5.125,5.125,0,0,1,2.325.7,3.086,3.086,0,0,1,.043.861c-.863.449-1.26-.164-2.18.414a14.855,14.855,0,0,0,.944,5.78c1.6-.457,1.358-1.72,2.246-2.489a2.271,2.271,0,0,1,1.59.695c.784,2.891-4.488,4.711-5.918,2.462-.477-1.588-.869-4-1.148-5.553-.635-.231-1.41-.145-1.661-1.254.211-.363.989-.479,1.473-.722.321-.807-.8-2.243.778-2.5C303.689,406.783,304.27,406.737,304.678,407.086Z" transform="translate(-7.703 -1.506)" fill="#5bbeea" fill-rule="evenodd"/>
    <path id="パス_1397" data-name="パス 1397" d="M323.138,400.481a22.148,22.148,0,0,0-4.715,4.04c-.727-.26-1.673-.021-2.041-1.1.8-1.1,3.45-2.717,4.283-4.017C320.949,398.956,323.015,399.182,323.138,400.481Z" transform="translate(-10.885)" fill="#5bbeea" fill-rule="evenodd"/>
    <path id="パス_1398" data-name="パス 1398" d="M274.958,418.445c2,.265,4.894-.439,5.834,1.816.669,1.605-.567,4.515-2.192,5.249-3.8,1.719-4.854-4.48-4.024-6.917Zm1.572,2.9a5.659,5.659,0,0,0,.613,2.688c.937-1.049,2.517-2.626,1.22-3.99C277.369,420.306,277.427,421.033,276.53,421.344Z" transform="translate(-2.176 -3.985)" fill="#5bbeea" fill-rule="evenodd"/>
    <path id="パス_1399" data-name="パス 1399" d="M292.783,414.29c1.06-1.324,2.9-1.709,3.8-.757,1.279,1.351.514,4.679.788,6.132a2.2,2.2,0,0,1-2.174-.32,24.852,24.852,0,0,1-.248-4c-1.574,1.17-1.312,3.143-1.96,4.718-3.274.474-1.934-4.27-2.512-6.044C291.474,413.593,292.042,414.141,292.783,414.29Z" transform="translate(-5.524 -2.859)" fill="#5bbeea" fill-rule="evenodd"/>
    <path id="パス_1400" data-name="パス 1400" d="M287.426,417.741c.092,1.548.815,3.374.723,4.841a3.171,3.171,0,0,1-2.048-.37,10.844,10.844,0,0,1-.8-4.665A2.378,2.378,0,0,1,287.426,417.741Z" transform="translate(-4.439 -3.761)" fill="#5bbeea" fill-rule="evenodd"/>
    <path id="パス_1401" data-name="パス 1401" d="M325,407.723c-2.066.532-4.622,2.987-6.238,1.269-.432-.8,3.389-2.44,4.4-2.6C324.134,406.239,325.372,406.835,325,407.723Z" transform="translate(-11.37 -1.485)" fill="#5bbeea" fill-rule="evenodd"/>
    <path id="パス_1402" data-name="パス 1402" d="M329.229,416.017c-1.206,1.09-2.531-.338-3.742-.585-1.622-.332-3.852.358-4.9-1.3.257-1.378,1.63-.427,2.837-.231C325.43,414.222,328.423,414.007,329.229,416.017Z" transform="translate(-11.754 -2.94)" fill="#5bbeea" fill-rule="evenodd"/>
  </g>
</svg>
