<svg xmlns="http://www.w3.org/2000/svg" width="44.315" height="43.663" viewBox="0 0 44.315 43.663">
  <path id="楕円形_386" data-name="楕円形 386" d="M22.157,2A20.255,20.255,0,0,0,7.893,7.819a19.753,19.753,0,0,0-4.314,6.3,19.607,19.607,0,0,0,0,15.418,19.753,19.753,0,0,0,4.314,6.3A20.439,20.439,0,0,0,30.013,40.1a20.114,20.114,0,0,0,6.409-4.257,19.753,19.753,0,0,0,4.314-6.3,19.607,19.607,0,0,0,0-15.418,19.753,19.753,0,0,0-4.314-6.3A20.255,20.255,0,0,0,22.157,2m0-2A22,22,0,0,1,44.315,21.831,22,22,0,0,1,22.157,43.663,22,22,0,0,1,0,21.831,22,22,0,0,1,22.157,0Z" fill="#fb7122"/>
</svg>
